<svg  viewBox="0 0 179 180" fill="none" xmlns="http://www.w3.org/2000/svg">
<rect x="0.0234375" y="89.7676" width="126.227" height="126.227" rx="30" transform="rotate(-45 0.0234375 89.7676)" fill="url(#paint0_linear_850_71)" stroke="#9333EA" stroke-width="2.74406"/>
<g clip-path="url(#clip0_850_71)">
<path fill-rule="evenodd" clip-rule="evenodd" d="M53.0234 90.0117C53.0234 119.45 60.0856 126.512 89.5234 126.512C118.961 126.512 126.023 119.45 126.023 90.0117C126.023 60.5739 118.961 53.5117 89.5234 53.5117C60.0856 53.5117 53.0234 60.5739 53.0234 90.0117ZM67.7421 97.594L79.1911 71.5758C81.1227 67.1901 84.84 64.8113 89.5234 64.8113C94.2068 64.8113 97.9236 67.1895 99.8564 71.5752L111.305 97.594C111.825 98.8578 112.271 100.493 112.271 101.906C112.271 108.373 107.736 112.907 101.268 112.907C99.0659 112.907 97.3162 112.346 95.5454 111.777C93.7306 111.194 91.8937 110.603 89.5234 110.603C87.1806 110.603 85.2986 111.199 83.4479 111.785C81.6583 112.351 79.8977 112.907 77.7784 112.907C71.3111 112.907 66.776 108.374 66.776 101.906C66.776 100.493 67.2225 98.8578 67.7426 97.594H67.7421ZM89.5234 76.1104L78.2238 101.683C81.5693 100.122 85.4349 99.3785 89.5234 99.3785C93.4637 99.3785 97.4776 100.122 100.674 101.683L89.5234 76.1109V76.1104Z" fill="#E6E6E6"/>
</g>
<defs>
<linearGradient id="paint0_linear_850_71" x1="135.855" y1="80.6207" x2="0.0234415" y2="215.994" gradientUnits="userSpaceOnUse">
<stop stop-color="#9333EA" stop-opacity="0.5"/>
<stop offset="1" stop-color="#9333EA" stop-opacity="0"/>
</linearGradient>
<clipPath id="clip0_850_71">
<rect width="73" height="73" fill="white" transform="translate(53.0234 53.5117)"/>
</clipPath>
</defs>
</svg>
