<svg viewBox="0 0 180 179" fill="none" xmlns="http://www.w3.org/2000/svg">
<rect x="0.511719" y="89.2559" width="126.227" height="126.227" rx="30" transform="rotate(-45 0.511719 89.2559)" fill="url(#paint0_linear_871_3)" stroke="#9333EA" stroke-width="2.74406"/>
<path d="M124.764 108.372C122.199 109.025 120.613 108.401 119.189 106.263C115.994 101.476 112.468 96.9086 109.064 92.2568C108.626 91.6549 108.17 91.0642 107.602 90.3161C103.574 95.7499 99.5525 100.925 95.7782 106.308C94.4282 108.232 93.0107 109.07 90.4907 108.389L105.633 88.0661L91.5369 69.7118C93.9613 69.2393 95.6375 69.4811 97.1225 71.6524C100.402 76.4449 104.019 81.0068 107.624 85.833C111.253 81.0236 114.824 76.4561 118.199 71.7086C119.555 69.7849 121.012 69.0536 123.448 69.7624C121.603 72.2093 119.797 74.6168 117.98 77.0074C115.528 80.2305 113.12 83.493 110.578 86.6486C109.672 87.7736 109.818 88.5049 110.628 89.568C115.331 95.7499 119.977 101.994 124.764 108.372ZM54.26 87.7286C54.665 85.698 54.935 83.628 55.4975 81.6368C58.8725 69.5824 72.71 64.5705 82.2163 72.0405C87.785 76.4224 89.1688 82.5986 88.8932 89.5624H57.5057C57.0332 102.056 66.0275 109.599 77.4913 105.751C81.5132 104.401 83.8813 101.251 85.0682 97.3136C85.67 95.3393 86.6657 95.0299 88.5219 95.5924C87.5713 100.52 85.4169 104.637 80.9169 107.214C74.1669 111.072 64.5313 109.824 59.4632 104.463C56.4707 101.313 55.1994 97.3924 54.6369 93.1568C54.5525 92.4818 54.3782 91.818 54.2432 91.1486C54.2544 90.0086 54.26 88.8686 54.26 87.7286ZM57.5619 86.8905H85.9288C85.7432 77.8568 80.1182 71.4386 72.4288 71.3824C63.9913 71.3149 57.9275 77.5811 57.5619 86.8905Z" fill="#E6E6E6"/>
<defs>
<linearGradient id="paint0_linear_871_3" x1="136.343" y1="80.109" x2="0.511723" y2="215.483" gradientUnits="userSpaceOnUse">
<stop stop-color="#9333EA" stop-opacity="0.5"/>
<stop offset="1" stop-color="#9333EA" stop-opacity="0"/>
</linearGradient>
</defs>
</svg>
