<svg width="32" height="32" viewBox="0 0 32 32" fill="none" xmlns="http://www.w3.org/2000/svg">
<path d="M19.5626 20.3176C21.1651 19.9846 22.6191 19.4071 23.7495 18.5593C25.6798 17.1116 26.6663 14.8756 26.6663 12.6665C26.6663 11.1167 26.0788 9.66992 25.0616 8.44445C24.4948 7.76158 26.1527 2.66651 24.6797 3.35271C23.2067 4.0389 21.0469 5.55778 19.9147 5.22257C18.7027 4.86368 17.3819 4.66651 15.9997 4.66651C14.7991 4.66651 13.6449 4.81526 12.5681 5.08952C11.0027 5.48816 9.50574 3.99984 7.99967 3.35271C6.49358 2.70557 7.31541 7.97538 6.86807 8.52952C5.8938 9.73665 5.33301 11.1525 5.33301 12.6665C5.33301 14.8756 6.52691 17.1116 8.45721 18.5593C9.74307 19.5237 11.3557 20.1383 13.1597 20.4412" stroke="#E6E6E6" stroke-width="1.33333" stroke-linecap="round"/>
<path d="M13.1594 20.4412C12.3871 21.2912 12.001 22.0984 12.001 22.8628C12.001 23.6272 12.001 25.5642 12.001 28.6736" stroke="#E6E6E6" stroke-width="1.33333" stroke-linecap="round"/>
<path d="M19.5635 20.3176C20.2953 21.2782 20.6612 22.1406 20.6612 22.905C20.6612 23.6694 20.6612 25.5922 20.6612 28.6737" stroke="#E6E6E6" stroke-width="1.33333" stroke-linecap="round"/>
<path d="M4 20.8103C4.59925 20.8836 5.04369 21.1591 5.33333 21.6369C5.76779 22.3535 7.3828 25.012 9.21673 25.012C10.4394 25.012 11.3677 25.012 12.0016 25.012" stroke="#E6E6E6" stroke-width="1.33333" stroke-linecap="round"/>
</svg>
