<svg width="32" height="32" viewBox="0 0 32 32" fill="none" xmlns="http://www.w3.org/2000/svg">
<path d="M19.5626 20.3177C21.1651 19.9847 22.6191 19.4072 23.7495 18.5594C25.6798 17.1117 26.6663 14.8757 26.6663 12.6666C26.6663 11.1168 26.0788 9.67 25.0616 8.44453C24.4948 7.76166 26.1527 2.66659 24.6797 3.35279C23.2067 4.03898 21.0469 5.55786 19.9147 5.22265C18.7027 4.86376 17.3819 4.66659 15.9997 4.66659C14.7991 4.66659 13.6449 4.81534 12.5681 5.0896C11.0027 5.48824 9.50574 3.99992 7.99967 3.35279C6.49358 2.70565 7.31541 7.97546 6.86807 8.5296C5.8938 9.73673 5.33301 11.1525 5.33301 12.6666C5.33301 14.8757 6.52691 17.1117 8.45721 18.5594C9.74307 19.5238 11.3557 20.1384 13.1597 20.4413" stroke="#1B1B1B" stroke-width="1.33333" stroke-linecap="round"/>
<path d="M13.1594 20.4412C12.3871 21.2913 12.001 22.0985 12.001 22.8629C12.001 23.6273 12.001 25.5642 12.001 28.6737" stroke="#1B1B1B" stroke-width="1.33333" stroke-linecap="round"/>
<path d="M19.5635 20.3177C20.2953 21.2782 20.6612 22.1406 20.6612 22.905C20.6612 23.6694 20.6612 25.5923 20.6612 28.6738" stroke="#1B1B1B" stroke-width="1.33333" stroke-linecap="round"/>
<path d="M4 20.8103C4.59925 20.8836 5.04369 21.1591 5.33333 21.6369C5.76779 22.3535 7.3828 25.012 9.21673 25.012C10.4394 25.012 11.3677 25.012 12.0016 25.012" stroke="#1B1B1B" stroke-width="1.33333" stroke-linecap="round"/>
</svg>
