<svg width="180" height="179" viewBox="0 0 180 179" fill="none" xmlns="http://www.w3.org/2000/svg">
<rect x="0.612305" y="89.2559" width="126.227" height="126.227" rx="30" transform="rotate(-45 0.612305 89.2559)" fill="url(#paint0_linear_499_74)" stroke="url(#paint1_linear_499_74)" stroke-width="2.74406"/>
<g clip-path="url(#clip0_499_74)">
<path d="M55.5977 54.4368V122.896H124.057V54.4368H55.5977ZM91.8092 112.771C90.7988 114.824 88.8699 116.173 86.6348 116.824C83.2003 117.613 79.9154 117.163 77.4717 115.697C75.8363 114.693 74.5592 113.149 73.6922 111.37L78.906 108.177C78.9515 108.196 79.0884 108.443 79.2713 108.763C79.9362 109.877 80.5096 110.666 81.6367 111.219C82.7441 111.597 85.1753 111.839 86.114 109.89C86.6874 108.899 86.505 105.713 86.505 102.187C86.5045 96.6475 86.5302 91.1308 86.5302 85.6541H92.9429C92.9429 91.6785 92.9758 97.3841 92.9429 103.263C92.9566 106.867 93.2693 110.079 91.8092 112.771ZM118.412 110.959C116.183 118.584 103.755 118.832 98.7887 113.794C97.7394 112.608 97.0817 111.989 96.4557 110.62C99.0949 109.102 99.0949 109.102 101.663 107.616C103.058 109.76 104.348 110.94 106.668 111.422C109.816 111.807 112.983 110.725 112.273 107.381C111.543 104.651 105.827 103.986 101.937 101.066C97.9875 98.4138 97.0619 91.9688 100.307 88.2862C101.389 86.9241 103.234 85.9077 105.169 85.4191L107.189 85.1579C111.067 85.0796 113.491 86.1037 115.27 88.0907C115.765 88.5924 116.17 89.1335 116.925 90.306C114.86 91.6226 114.866 91.61 111.907 93.5258C111.275 92.1643 110.226 91.3099 109.118 90.9386C107.397 90.4172 105.227 90.984 104.777 92.8023C104.621 93.3626 104.653 93.884 104.901 94.8095C105.599 96.3994 107.938 97.0906 110.037 98.055C116.078 100.505 118.118 103.133 118.62 106.26C119.103 108.952 118.503 110.699 118.412 110.959Z" fill="#FCFCFC"/>
</g>
<defs>
<linearGradient id="paint0_linear_499_74" x1="136.443" y1="80.109" x2="0.612309" y2="215.483" gradientUnits="userSpaceOnUse">
<stop stop-color="#755CEF" stop-opacity="0.5"/>
<stop offset="1" stop-color="#755CEF" stop-opacity="0"/>
</linearGradient>
<linearGradient id="paint1_linear_499_74" x1="126.839" y1="89.2559" x2="0.612305" y2="215.483" gradientUnits="userSpaceOnUse">
<stop stop-color="#755CEF"/>
<stop offset="1" stop-color="#755CEF" stop-opacity="0"/>
</linearGradient>
<clipPath id="clip0_499_74">
<rect width="70.1021" height="70.1021" fill="white" transform="translate(54.502 53.8892)"/>
</clipPath>
</defs>
</svg>
