<svg  viewBox="0 0 180 180" fill="none" xmlns="http://www.w3.org/2000/svg">
<rect x="0.947754" y="89.7676" width="126.227" height="126.227" rx="30" transform="rotate(-45 0.947754 89.7676)" fill="url(#paint0_linear_499_98)" stroke="url(#paint1_linear_499_98)" stroke-width="2.74406"/>
<path d="M116.745 71.1616L92.5941 57.1384C91.071 56.2709 89.0879 56.2709 87.5528 57.1384L63.1441 71.1616C61.5723 72.0658 60.46 73.7652 60.46 75.5829V103.592C60.46 105.41 61.6013 107.11 63.1731 108.019L69.622 111.682C72.7043 113.2 73.7936 113.2 75.1962 113.2C79.7599 113.2 82.3669 110.44 82.3669 105.627V77.9746C82.3669 77.5841 82.1637 77.0031 81.7803 77.0031H78.7007C78.3108 77.0031 77.4378 77.5841 77.4378 77.9741V105.626C77.4378 107.76 75.5078 109.883 71.9008 108.08L65.2373 104.239C65.0051 104.113 64.8413 103.859 64.8413 103.592V75.5829C64.8413 75.319 65.1453 75.0539 65.3792 74.9186L89.709 60.9196C89.9362 60.7909 90.2703 60.7909 90.4971 60.9196L114.53 74.9153C114.76 75.0539 114.679 75.3107 114.679 75.5829V103.592C114.679 103.859 114.779 104.119 114.552 104.248L90.4072 118.255C90.2002 118.38 89.9434 118.38 89.7166 118.255L83.5241 114.559C83.3373 114.451 83.1155 114.412 82.9364 114.512C81.2135 115.489 80.8958 115.618 79.2796 116.179C78.882 116.317 78.2955 116.558 79.5042 117.235L87.6086 122.029C88.3824 122.476 89.2601 122.712 90.1537 122.712C91.0529 122.712 91.9336 122.478 92.7097 122.029L116.744 108.019C118.316 107.103 119.061 105.41 119.061 103.592V75.5829C119.061 73.7652 118.316 72.0702 116.745 71.1616ZM97.6524 99.1537C91.2304 99.1537 89.8158 97.3819 89.3442 94.1885C89.2894 93.8445 88.9975 93.4332 88.6476 93.4332H85.5089C85.1206 93.4332 84.8084 93.9042 84.8084 94.2909C84.8084 98.3798 87.0314 103.334 97.6529 103.334C105.342 103.334 109.75 100.346 109.75 95.0593C109.75 89.8169 106.208 88.4412 98.7516 87.4543C91.2145 86.4581 90.4489 85.9548 90.4489 84.1891C90.4489 82.7333 91.0973 80.7918 96.6781 80.7918C101.665 80.7918 103.503 81.862 104.259 85.2231C104.324 85.5391 104.612 85.7658 104.938 85.7658H108.089C108.283 85.7658 108.468 85.6875 108.604 85.5489C108.736 85.4 108.805 85.2132 108.788 85.0128C108.3 79.225 104.454 76.5277 96.6775 76.5277C89.7599 76.5277 85.6332 79.449 85.6332 84.3457C85.6332 89.657 89.7391 91.1248 96.3796 91.7814C104.324 92.5602 104.941 93.7213 104.941 95.2838C104.941 97.9975 102.763 99.1537 97.6524 99.1537Z" fill="#E6E6E6"/>
<defs>
<linearGradient id="paint0_linear_499_98" x1="136.779" y1="80.6207" x2="0.947758" y2="215.994" gradientUnits="userSpaceOnUse">
<stop stop-color="#755CEF" stop-opacity="0.5"/>
<stop offset="1" stop-color="#755CEF" stop-opacity="0"/>
</linearGradient>
<linearGradient id="paint1_linear_499_98" x1="127.175" y1="89.7676" x2="0.947754" y2="215.994" gradientUnits="userSpaceOnUse">
<stop stop-color="#755CEF"/>
<stop offset="1" stop-color="#755CEF" stop-opacity="0"/>
</linearGradient>
</defs>
</svg>
