<svg width="179" height="179" viewBox="0 0 179 179" fill="none" xmlns="http://www.w3.org/2000/svg">
<rect x="0.464355" y="89.0881" width="125.99" height="125.99" rx="30" transform="rotate(-45 0.464355 89.0881)" fill="url(#paint0_linear_499_99)" stroke="url(#paint1_linear_499_99)" stroke-width="2.62915"/>
<g clip-path="url(#clip0_499_99)">
<path d="M57.7627 52.8799L63.4994 117.284L89.2408 124.461L115.054 117.257L120.795 52.8799H57.7627ZM108.878 67.6351L106.968 89.09L106.974 89.2059L106.966 89.4723V89.47L105.609 104.472L105.459 105.804L89.2791 110.28V110.28L89.2665 110.291L73.1141 105.791L72.0204 93.3879H79.9411L80.5031 99.6946L89.2814 102.074L89.2791 102.078V102.077L98.0899 99.6643L99.021 89.3941H80.6024L80.4443 87.658L80.0843 83.5907L79.8955 81.4066H99.721L100.442 73.4192H70.246L70.088 71.6842L69.7285 67.6157L69.5391 65.4317H109.066L108.878 67.6351Z" fill="#E6E6E6"/>
</g>
<defs>
<linearGradient id="paint0_linear_499_99" x1="136.04" y1="79.9585" x2="0.464371" y2="215.078" gradientUnits="userSpaceOnUse">
<stop stop-color="#755CEF" stop-opacity="0.5"/>
<stop offset="1" stop-color="#755CEF" stop-opacity="0"/>
</linearGradient>
<linearGradient id="paint1_linear_499_99" x1="126.454" y1="89.0881" x2="0.464366" y2="215.078" gradientUnits="userSpaceOnUse">
<stop stop-color="#755CEF"/>
<stop offset="1" stop-color="#755CEF" stop-opacity="0"/>
</linearGradient>
<clipPath id="clip0_499_99">
<rect width="73.0285" height="73.0285" fill="white" transform="translate(52.7661 52.3093)"/>
</clipPath>
</defs>
</svg>
