<svg width="179" height="179" viewBox="0 0 179 179" fill="none" xmlns="http://www.w3.org/2000/svg">
<rect x="0.316406" y="89.0881" width="125.99" height="125.99" rx="30" transform="rotate(-45 0.316406 89.0881)" fill="url(#paint0_linear_499_93)" stroke="url(#paint1_linear_499_93)" stroke-width="2.74406"/>
<path d="M59.1997 55.0305L64.6792 116.421L89.2675 123.212L113.924 116.428L119.409 55.0305H59.1997ZM108.012 69.5652L107.668 73.4931L107.517 75.2944H78.6738L79.3623 82.9618H106.831L106.647 84.8628L104.877 104.644L104.746 105.887L89.3042 110.131V110.132L89.2855 110.142L73.8538 106.077L72.8061 94.4629H80.3722L80.9083 100.443L89.2806 102.678H89.3042V102.379L97.7137 100.257L98.5921 90.6292H72.4693L70.6165 69.7536L70.4363 67.627H108.192L108.012 69.5652Z" fill="#E6E6E6"/>
<defs>
<linearGradient id="paint0_linear_499_93" x1="135.892" y1="79.9585" x2="0.31641" y2="215.078" gradientUnits="userSpaceOnUse">
<stop stop-color="#755CEF" stop-opacity="0.5"/>
<stop offset="1" stop-color="#755CEF" stop-opacity="0"/>
</linearGradient>
<linearGradient id="paint1_linear_499_93" x1="126.306" y1="89.0881" x2="0.316406" y2="215.078" gradientUnits="userSpaceOnUse">
<stop stop-color="#755CEF"/>
<stop offset="1" stop-color="#755CEF" stop-opacity="0"/>
</linearGradient>
</defs>
</svg>
