<svg  viewBox="0 0 180 180" fill="none" xmlns="http://www.w3.org/2000/svg">
<rect x="0.980469" y="89.7676" width="126.227" height="126.227" rx="30" transform="rotate(-45 0.980469 89.7676)" fill="url(#paint0_linear_499_94)" stroke="url(#paint1_linear_499_94)" stroke-width="2.74406"/>
<g clip-path="url(#clip0_499_94)">
<path d="M90.0652 95.8434C93.5134 95.8434 96.3087 93.0481 96.3087 89.5999C96.3087 86.1517 93.5134 83.3564 90.0652 83.3564C86.6171 83.3564 83.8218 86.1517 83.8218 89.5999C83.8218 93.0481 86.6171 95.8434 90.0652 95.8434Z" fill="#E6E6E6"/>
<path d="M113.78 79.3035C112.575 78.8654 111.316 78.4272 110.001 78.0439C110.33 76.7295 110.604 75.415 110.823 74.1554C111.973 66.9261 110.713 61.8328 107.208 59.8611C106.168 59.2587 105.017 58.9849 103.703 58.9849C99.8694 58.9849 94.9951 61.8328 90.066 66.5975C85.137 61.8328 80.2627 58.9849 76.429 58.9849C75.1146 58.9849 73.9645 59.2587 72.9239 59.8611C69.4188 61.8875 68.1591 66.9809 69.3092 74.1554C69.5283 75.415 69.8022 76.7295 70.1308 78.0439C68.8163 78.4272 67.5567 78.8106 66.3518 79.3035C59.5059 81.9323 55.7817 85.547 55.7817 89.5998C55.7817 93.6525 59.5607 97.2672 66.3518 99.896C67.5567 100.334 68.8163 100.772 70.1308 101.156C69.8022 102.47 69.5283 103.784 69.3092 105.044C68.1591 112.273 69.4188 117.367 72.9239 119.338C73.9645 119.941 75.1146 120.215 76.429 120.215C80.3175 120.215 85.1917 117.367 90.066 112.602C94.9951 117.367 99.8694 120.215 103.703 120.215C105.017 120.215 106.168 119.941 107.208 119.338C110.713 117.312 111.973 112.219 110.823 105.044C110.604 103.784 110.33 102.47 110.001 101.156C111.316 100.772 112.575 100.389 113.78 99.896C120.626 97.2672 124.35 93.6525 124.35 89.5998C124.35 85.547 120.626 81.9323 113.78 79.3035ZM105.675 62.5995C107.92 63.9139 108.687 67.9667 107.756 73.7173C107.592 74.8674 107.318 76.0722 106.989 77.3319C104.141 76.6747 101.129 76.2365 97.9525 75.9627C96.0904 73.3339 94.1736 70.9789 92.2567 68.843C96.3095 64.845 100.417 62.1066 103.758 62.1066C104.47 62.1066 105.127 62.2709 105.675 62.5995ZM99.5408 95.0765C98.555 96.829 97.4048 98.5816 96.2 100.334C94.1736 100.498 92.1472 100.553 90.066 100.553C87.9301 100.553 85.9037 100.498 83.9321 100.334C82.7272 98.5816 81.6319 96.829 80.6461 95.0765C79.6055 93.2692 78.6197 91.4071 77.7434 89.5998C78.6197 87.7924 79.6055 85.9303 80.6461 84.123C81.6319 82.3705 82.782 80.6179 83.9869 78.8654C86.0133 78.7011 88.0396 78.6463 90.1208 78.6463C92.2567 78.6463 94.2831 78.7011 96.2547 78.8654C97.4596 80.6179 98.555 82.3705 99.5408 84.123C100.581 85.9303 101.567 87.7924 102.443 89.5998C101.512 91.4071 100.581 93.2144 99.5408 95.0765ZM104.086 93.2692C104.908 95.186 105.565 97.0481 106.168 98.9102C104.306 99.3483 102.334 99.6769 100.253 99.9508C100.91 98.9102 101.622 97.8148 102.224 96.6647C102.882 95.5146 103.484 94.3645 104.086 93.2692ZM90.066 108.111C88.7516 106.687 87.492 105.154 86.2871 103.565C87.5467 103.62 88.8064 103.675 90.066 103.675C91.3257 103.675 92.5853 103.62 93.845 103.565C92.6401 105.154 91.3804 106.687 90.066 108.111ZM79.8793 99.896C77.7982 99.6222 75.8265 99.2936 73.9645 98.8554C74.5669 97.0481 75.2241 95.1312 76.0456 93.2144C76.6481 94.3097 77.2505 95.4598 77.9077 96.5552C78.5649 97.7601 79.2221 98.8006 79.8793 99.896ZM76.0456 85.9303C75.2241 84.0135 74.5669 82.1514 73.9645 80.2893C75.8265 79.8512 77.7982 79.5226 79.8793 79.2487C79.2221 80.2893 78.5101 81.3847 77.9077 82.5348C77.2505 83.6849 76.6481 84.835 76.0456 85.9303ZM90.066 71.0884C91.3804 72.5124 92.6401 74.0459 93.845 75.6341C92.5853 75.5793 91.3257 75.5246 90.066 75.5246C88.8064 75.5246 87.5467 75.5793 86.2871 75.6341C87.492 74.0459 88.7516 72.5124 90.066 71.0884ZM102.224 82.5895L100.253 79.3035C102.334 79.5773 104.306 79.9059 106.168 80.3441C105.565 82.1514 104.908 84.0683 104.086 85.9851C103.484 84.835 102.882 83.6849 102.224 82.5895ZM72.3762 73.7173C71.4452 67.9667 72.2119 63.9139 74.4574 62.5995C75.005 62.2709 75.6622 62.1066 76.3742 62.1066C79.6603 62.1066 83.7678 64.7902 87.8753 68.843C85.9585 70.9241 84.0416 73.3339 82.1795 75.9627C79.003 76.2365 75.9908 76.7294 73.143 77.3319C72.8143 76.0722 72.5953 74.8674 72.3762 73.7173ZM58.8487 89.5998C58.8487 87.0257 61.9704 84.2873 67.4472 82.2609C68.5425 81.8228 69.7474 81.4394 70.9523 81.1108C71.8285 83.8492 72.9239 86.7519 74.2383 89.6545C72.9239 92.5572 71.7738 95.4051 70.9523 98.1434C63.3944 95.9528 58.8487 92.6667 58.8487 89.5998ZM74.4574 116.6C72.2119 115.286 71.4452 111.233 72.3762 105.482C72.5405 104.332 72.8143 103.127 73.143 101.868C75.9908 102.525 79.003 102.963 82.1795 103.237C84.0416 105.866 85.9585 108.221 87.8753 110.357C83.8226 114.355 79.715 117.093 76.3742 117.093C75.6622 117.093 75.005 116.929 74.4574 116.6ZM107.756 105.482C108.687 111.233 107.92 115.286 105.675 116.6C105.127 116.929 104.47 117.093 103.758 117.093C100.472 117.093 96.3643 114.409 92.2567 110.357C94.1736 108.275 96.0904 105.866 97.9525 103.237C101.129 102.963 104.141 102.47 106.989 101.868C107.318 103.127 107.537 104.332 107.756 105.482ZM112.685 96.9386C111.59 97.3767 110.385 97.7601 109.18 98.0887C108.304 95.3503 107.208 92.4476 105.894 89.545C107.208 86.6423 108.358 83.7944 109.18 81.0561C116.738 83.2468 121.283 86.5328 121.283 89.5998C121.283 92.1738 118.107 94.9122 112.685 96.9386Z" fill="#E6E6E6"/>
</g>
<defs>
<linearGradient id="paint0_linear_499_94" x1="136.812" y1="80.6207" x2="0.980473" y2="215.994" gradientUnits="userSpaceOnUse">
<stop stop-color="#755CEF" stop-opacity="0.5"/>
<stop offset="1" stop-color="#755CEF" stop-opacity="0"/>
</linearGradient>
<linearGradient id="paint1_linear_499_94" x1="127.207" y1="89.7676" x2="0.980469" y2="215.994" gradientUnits="userSpaceOnUse">
<stop stop-color="#755CEF"/>
<stop offset="1" stop-color="#755CEF" stop-opacity="0"/>
</linearGradient>
<clipPath id="clip0_499_94">
<rect width="70.1021" height="70.1021" fill="white" transform="translate(55.0176 54.5488)"/>
</clipPath>
</defs>
</svg>
