<svg width="32" height="32" viewBox="0 0 32 32" fill="none" xmlns="http://www.w3.org/2000/svg">
<path d="M22.6667 4H9.33333C6.38781 4 4 6.38781 4 9.33333V22.6667C4 25.6122 6.38781 28 9.33333 28H22.6667C25.6122 28 28 25.6122 28 22.6667V9.33333C28 6.38781 25.6122 4 22.6667 4Z" stroke="#1B1B1B" stroke-width="1.33333" stroke-linejoin="round"/>
<path d="M16.0003 21.3333C18.9459 21.3333 21.3337 18.9455 21.3337 16C21.3337 13.0545 18.9459 10.6667 16.0003 10.6667C13.0548 10.6667 10.667 13.0545 10.667 16C10.667 18.9455 13.0548 21.3333 16.0003 21.3333Z" stroke="#1B1B1B" stroke-width="1.33333" stroke-linejoin="round"/>
<path d="M23.3333 10C24.0697 10 24.6667 9.40307 24.6667 8.66667C24.6667 7.93027 24.0697 7.33333 23.3333 7.33333C22.5969 7.33333 22 7.93027 22 8.66667C22 9.40307 22.5969 10 23.3333 10Z" fill="#1B1B1B"/>
</svg>
