<svg viewBox="0 0 180 179" fill="none" xmlns="http://www.w3.org/2000/svg">
<rect x="0.688477" y="89.2559" width="126.227" height="126.227" rx="30" transform="rotate(-45 0.688477 89.2559)" fill="url(#paint0_linear_850_13)" stroke="#9333EA" stroke-width="2.74406"/>
<g clip-path="url(#clip0_850_13)">
<path d="M55.6738 54.437V122.896H124.133V54.437H55.6738ZM91.8854 112.771C90.8749 114.824 88.946 116.173 86.711 116.825C83.2765 117.613 79.9916 117.164 77.5479 115.697C75.9125 114.694 74.6353 113.149 73.7684 111.37L78.9822 108.177C79.0277 108.196 79.1646 108.444 79.3475 108.763C80.0124 109.877 80.5858 110.666 81.7129 111.22C82.8203 111.598 85.2514 111.839 86.1901 109.89C86.7636 108.899 86.5812 105.713 86.5812 102.187C86.5806 96.6478 86.6064 91.1311 86.6064 85.6543H93.0191C93.0191 91.6787 93.0519 97.3844 93.0191 103.263C93.0328 106.867 93.3455 110.079 91.8854 112.771ZM118.488 110.96C116.259 118.584 103.831 118.832 98.8649 113.794C97.8156 112.609 97.1578 111.989 96.5318 110.621C99.1711 109.102 99.1711 109.102 101.739 107.617C103.134 109.761 104.424 110.94 106.744 111.422C109.892 111.807 113.059 110.725 112.349 107.382C111.619 104.651 105.903 103.987 102.013 101.066C98.0637 98.414 97.1381 91.969 100.384 88.2865C101.465 86.9244 103.31 85.9079 105.245 85.4194L107.265 85.1582C111.143 85.0798 113.567 86.104 115.347 88.0909C115.842 88.5926 116.246 89.1337 117.002 90.3063C114.936 91.6229 114.942 91.6103 111.983 93.526C111.351 92.1645 110.303 91.3102 109.194 90.9388C107.473 90.4174 105.303 90.9843 104.853 92.8026C104.697 93.3628 104.729 93.8842 104.977 94.8098C105.675 96.3997 108.014 97.0908 110.113 98.0553C116.154 100.506 118.194 103.133 118.696 106.26C119.179 108.952 118.579 110.699 118.488 110.96Z" fill="#FCFCFC"/>
</g>
<defs>
<linearGradient id="paint0_linear_850_13" x1="136.52" y1="80.109" x2="0.688481" y2="215.483" gradientUnits="userSpaceOnUse">
<stop stop-color="#9333EA" stop-opacity="0.5"/>
<stop offset="1" stop-color="#9333EA" stop-opacity="0"/>
</linearGradient>
<clipPath id="clip0_850_13">
<rect width="70.1021" height="70.1021" fill="white" transform="translate(54.5781 53.8892)"/>
</clipPath>
</defs>
</svg>
