<svg width="32" height="32" viewBox="0 0 32 32" fill="none" xmlns="http://www.w3.org/2000/svg">
<path d="M5.99967 8.00008C7.47243 8.00008 8.66634 6.80617 8.66634 5.33341C8.66634 3.86066 7.47243 2.66675 5.99967 2.66675C4.52692 2.66675 3.33301 3.86066 3.33301 5.33341C3.33301 6.80617 4.52692 8.00008 5.99967 8.00008Z" stroke="#1B1B1B" stroke-width="1.33333"/>
<path d="M8.66634 12.0001H3.33301V28.6667H8.66634V12.0001Z" stroke="#1B1B1B" stroke-width="1.33333" stroke-linejoin="round"/>
<path d="M14 18.3333V28.6667H18.6667V19.3333C18.6667 17.6667 19.6667 16.3333 21.3333 16.3333C23 16.3333 24 18 24 19.3333V28.6667H28.6667V18.3333C28.6667 16.3333 26.3333 12 21.3333 12C16.3333 12 14 16.3333 14 18.3333Z" stroke="#1B1B1B" stroke-width="1.33333" stroke-linejoin="round"/>
</svg>
