<svg width="43" height="36" viewBox="0 0 43 36" fill="none" xmlns="http://www.w3.org/2000/svg">
<path d="M16.1658 0C15.3837 0 14.6735 0.455787 14.3476 1.16669L0.2986 31.8191C-0.308587 33.1439 0.659441 34.6524 2.11673 34.6524H2.29971C3.07612 34.6524 3.78237 34.2031 4.11133 33.4998L15.695 8.7347C16.4176 7.18973 18.6184 7.20025 19.3262 8.75205L23.2598 17.3755C23.5804 18.0784 24.2818 18.5294 25.0544 18.5294V18.5294C26.4889 18.5294 27.4437 17.0467 26.8501 15.7407L20.2281 1.17239C19.9036 0.458406 19.1916 0 18.4074 0H16.1658Z" fill="url(#paint0_linear_619_2)"/>
<path d="M10.1732 34.6524C8.89436 34.6524 8.05063 33.3213 8.59643 32.1647L15.4701 17.5992C16.1763 16.1026 18.3636 16.2941 18.7991 17.8906V17.8906C18.9114 18.3027 18.872 18.7414 18.6879 19.1269L11.7466 33.6603C11.4571 34.2665 10.845 34.6524 10.1732 34.6524V34.6524Z" fill="url(#paint1_linear_619_2)"/>
<path d="M23.5783 20.4545C22.8208 20.4545 22.1266 20.8815 21.7995 21.5648C21.6614 21.8531 21.5196 22.1542 21.3849 22.4473C20.9237 23.451 21.5532 24.3048 22.6578 24.3048H25.2914C26.1233 24.3048 26.8683 24.8198 27.1623 25.598L30.3186 33.9527C30.587 34.6634 31.2674 35.1337 32.0271 35.1337V35.1337C33.2891 35.1337 34.1708 33.8844 33.748 32.6954L31.714 26.9748C31.2511 25.6728 32.2166 24.3048 33.5985 24.3048H33.7697C34.5737 24.3048 35.2995 24.7862 35.6122 25.5269L39.1594 33.9281C39.4679 34.6588 40.184 35.1337 40.9771 35.1337V35.1337C42.4015 35.1337 43.3566 33.6704 42.7832 32.3665L29.5219 2.20775C29.2535 1.59731 28.6497 1.20321 27.9828 1.20321V1.20321C26.7857 1.20321 25.9721 2.41892 26.4286 3.52564L32.2722 17.6919C32.8152 19.0084 31.8474 20.4545 30.4233 20.4545H23.5783Z" fill="url(#paint2_linear_619_2)"/>
<defs>
<linearGradient id="paint0_linear_619_2" x1="-2.4876" y1="17.5668" x2="45.1157" y2="17.5668" gradientUnits="userSpaceOnUse">
<stop stop-color="#F7F5FF"/>
<stop offset="1" stop-color="#F1EDFD"/>
</linearGradient>
<linearGradient id="paint1_linear_619_2" x1="-2.4876" y1="17.5668" x2="45.1157" y2="17.5668" gradientUnits="userSpaceOnUse">
<stop stop-color="#F7F5FF"/>
<stop offset="1" stop-color="#F1EDFD"/>
</linearGradient>
<linearGradient id="paint2_linear_619_2" x1="20.6578" y1="18.2888" x2="44.2406" y2="18.2888" gradientUnits="userSpaceOnUse">
<stop stop-color="#543BCF"/>
<stop offset="1" stop-color="#755CEF"/>
</linearGradient>
</defs>
</svg>
