<svg width="439" height="256" viewBox="0 0 439 256" fill="none" xmlns="http://www.w3.org/2000/svg">
<path d="M167.044 1.8949V128.718H150.454V1.8949H167.044Z" fill="white"/>
<path d="M196.016 3.60933C203.236 2.12047 214.707 0.992554 226.316 0.992554C242.905 0.992554 253.554 3.83491 261.551 10.1964C268.224 15.069 272.245 22.6035 272.245 32.5744C272.245 44.801 264.065 55.5389 250.537 60.4115V60.7724C262.74 63.7953 277.044 73.7661 277.044 92.5798C277.044 103.498 272.657 111.754 266.167 117.981C257.21 126.057 242.722 129.846 221.745 129.846C210.32 129.846 201.545 129.079 196.016 128.358V3.60933ZM212.56 55.5389H227.595C245.145 55.5389 255.427 46.5155 255.427 34.2888C255.427 19.4454 244.002 13.5802 227.23 13.5802C219.597 13.5802 215.21 14.1667 212.56 14.7081V55.5389ZM212.56 116.311C215.804 116.898 220.557 117.078 226.453 117.078C243.591 117.078 259.403 110.852 259.403 92.4445C259.403 75.1196 244.368 67.9911 226.224 67.9911H212.514V116.311H212.56Z" fill="white"/>
<path d="M315.844 1.8949V128.718H299.255V1.8949H315.844Z" fill="white"/>
<path d="M150.454 127.726H167.044V240.789H221.931V254.504H150.454V127.726Z" fill="#6246EA"/>
<path d="M261.187 214.621L247.842 254.504H230.704L274.303 127.726H294.32L338.148 254.504H320.416L306.705 214.621H261.187ZM303.278 201.853L290.71 165.353C287.831 157.097 285.957 149.562 284.038 142.208H283.672C281.752 149.743 279.65 157.458 277.182 165.173L264.614 201.853H303.278Z" fill="#6246EA"/>
<path d="M357.024 129.395C364.245 127.906 375.716 126.778 387.324 126.778C403.914 126.778 414.562 129.621 422.56 135.982C429.232 140.855 433.254 148.389 433.254 158.36C433.254 170.587 425.074 181.325 411.546 186.197V186.558C423.748 189.581 438.053 199.552 438.053 218.366C438.053 229.284 433.666 237.54 427.176 243.766C418.218 251.842 403.731 255.632 382.754 255.632C371.329 255.632 362.554 254.865 357.024 254.143V129.395ZM373.614 181.325H388.65C406.199 181.325 416.482 172.301 416.482 160.075C416.482 145.231 405.057 139.366 388.284 139.366C380.652 139.366 376.265 139.952 373.614 140.494V181.325ZM373.614 242.097C376.859 242.684 381.612 242.864 387.507 242.864C404.645 242.864 420.458 236.638 420.458 218.23C420.458 200.905 405.422 193.777 387.279 193.777H373.568V242.097H373.614Z" fill="#6246EA"/>
<path d="M12.4762 160.571L15.3554 157.729V154.074C13.8015 151.503 12.2477 148.66 10.6482 145.412C10.3282 145.953 9.96264 146.54 9.64273 147.126V156.375H6.76354V152.495C5.62101 154.841 4.52418 157.458 3.56445 160.255L3.93006 160.616H12.4762V160.571Z" fill="#6246EA"/>
<path d="M19.6067 160.571H19.7438C18.7384 159.308 17.733 157.864 16.7275 156.33V157.729L19.6067 160.571Z" fill="#6246EA"/>
<path d="M69.0561 158.405C68.1878 159.127 67.3195 159.849 66.4512 160.571H66.8625L69.0561 158.405Z" fill="#6246EA"/>
<path d="M76.8709 160.571V152.405C74.9057 153.758 72.9863 155.247 71.1582 156.691V160.571H76.8709Z" fill="#6246EA"/>
<path d="M84.0457 160.571V148.074C82.0805 149.066 80.1611 150.194 78.333 151.412V160.571H84.0457Z" fill="#6246EA"/>
<path d="M88.3384 160.571H96.9302L99.8094 157.729V145.006L98.5298 143.742C93.7768 144.194 89.4809 145.547 85.5049 147.352V157.729L88.3384 160.571ZM91.1718 146.449H94.051V156.33H91.1718V146.449Z" fill="#6246EA"/>
<path d="M106.94 160.571V143.833C105.066 143.607 103.147 143.517 101.228 143.562V160.526H106.94V160.571Z" fill="#6246EA"/>
<path d="M108.357 157.774L111.237 160.616H119.828L122.708 157.774V148.705C118.503 146.675 114.024 145.051 109.226 144.239L108.357 145.096V157.774ZM114.116 146.449H116.995V156.33H114.116V146.449Z" fill="#6246EA"/>
<path d="M129.837 160.571V152.721C128.009 151.548 126.089 150.42 124.124 149.382V160.571H129.837Z" fill="#6246EA"/>
<path d="M134.132 160.571H140.165C137.56 158.27 134.589 155.924 131.299 153.668V157.729L134.132 160.571Z" fill="#6246EA"/>
<path d="M6.7195 184.709V166.346H1.73806C1.46385 167.474 1.23534 168.647 1.00684 169.82V184.709H6.7195Z" fill="#6246EA"/>
<path d="M19.6038 184.709L22.483 181.866V169.143L19.6038 166.301H11.012L8.13281 169.143V181.866L11.012 184.709H19.6038ZM13.8912 170.587H16.7704V180.468H13.8912V170.587Z" fill="#6246EA"/>
<path d="M23.9033 181.866L26.7825 184.709H35.3744L38.2535 181.866V173.384C36.5169 173.114 34.5974 172.527 32.5409 171.58V180.468H29.6617V170.587H30.5757C29.0676 169.73 27.5137 168.602 25.9142 167.203L23.949 169.143V181.866H23.9033Z" fill="#6246EA"/>
<path d="M45.3816 184.709V173.294C43.5536 173.655 41.6341 173.745 39.6689 173.565V184.663H45.3816V184.709Z" fill="#6246EA"/>
<path d="M49.6782 184.709H58.27L61.1492 181.866V169.143L58.7271 166.752C56.7619 168.196 54.7968 169.504 52.8316 170.542H55.4366V180.422H52.5574V170.677C50.6836 171.67 48.8099 172.437 46.8447 172.933V181.866L49.6782 184.709Z" fill="#6246EA"/>
<path d="M74.0374 184.709L76.9166 181.866V169.143L74.0374 166.301H65.4456L62.5664 169.143V181.866L65.4456 184.709H74.0374ZM68.2791 170.587H71.1583V180.468H68.2791V170.587Z" fill="#6246EA"/>
<path d="M83.9988 166.346H78.2861V184.709H83.9988V166.346Z" fill="#6246EA"/>
<path d="M96.932 184.709L99.8112 181.866V169.143L96.932 166.301H88.3401L85.4609 169.143V181.866L88.3401 184.709H96.932ZM91.1736 170.587H94.0528V180.468H91.1736V170.587Z" fill="#6246EA"/>
<path d="M106.94 166.346H101.228V184.709H106.94V166.346Z" fill="#6246EA"/>
<path d="M119.828 184.709L122.708 181.866V169.143L119.828 166.301H111.237L108.357 169.143V181.866L111.237 184.709H119.828ZM114.116 170.587H116.995V180.468H114.116V170.587Z" fill="#6246EA"/>
<path d="M135.55 184.709L138.429 181.866V169.143L135.55 166.301H126.958L124.079 169.143V181.866L126.958 184.709H135.55ZM129.837 170.587H132.717V180.468H129.837V170.587Z" fill="#6246EA"/>
<path d="M139.846 184.709H145.147C145.147 177.4 143.959 171.038 142.725 166.346H139.846V184.709Z" fill="#6246EA"/>
<path d="M15.3078 206.004V193.281L12.4287 190.438H3.88252L1.32324 192.965C2.37437 198.334 4.11102 203.658 6.44179 208.846H12.4287L15.3078 206.004ZM9.59518 204.56H6.716V194.679H9.59518V204.56Z" fill="#6246EA"/>
<path d="M16.7705 193.281V206.004L19.6497 208.846H28.2415L31.1207 206.004V193.281L28.2415 190.438H19.604L16.7705 193.281ZM22.4832 194.679H25.3624V204.56H22.4832V194.679Z" fill="#6246EA"/>
<path d="M38.2107 190.438H32.498V208.801H38.2107V190.438Z" fill="#6246EA"/>
<path d="M51.096 208.801L53.9752 205.959V193.236L51.096 190.393H42.5042L39.625 193.236V205.959L42.5042 208.801H51.096ZM45.3834 194.679H48.2625V204.56H45.3834V194.679Z" fill="#6246EA"/>
<path d="M66.8607 208.801L69.7399 205.959V193.236L66.8607 190.393H58.2688L55.3896 193.236V205.959L58.2688 208.801H66.8607ZM61.148 194.679H64.0272V204.56H61.148V194.679Z" fill="#6246EA"/>
<path d="M76.8709 190.438H71.1582V208.801H76.8709V190.438Z" fill="#6246EA"/>
<path d="M83.9988 190.438H78.2861V208.801H83.9988V190.438Z" fill="#6246EA"/>
<path d="M96.932 208.801L99.8112 205.959V193.236L96.932 190.393H88.3401L85.4609 193.236V205.959L88.3401 208.801H96.932ZM91.1736 194.679H94.0528V204.56H91.1736V194.679Z" fill="#6246EA"/>
<path d="M106.94 190.438H101.228V208.801H106.94V190.438Z" fill="#6246EA"/>
<path d="M119.828 208.801L122.708 205.959V193.236L119.828 190.393H111.237L108.357 193.236V205.959L111.237 208.801H119.828ZM114.116 194.679H116.995V204.56H114.116V194.679Z" fill="#6246EA"/>
<path d="M129.837 190.438H124.124V208.801H129.837V190.438Z" fill="#6246EA"/>
<path d="M134.132 190.438L131.253 193.281V206.004L134.132 208.846H140.667C141.124 207.673 141.536 206.5 141.947 205.327C143.409 200.906 144.278 196.574 144.735 192.469L142.724 190.484H134.132V190.438ZM139.845 204.56H136.966V194.679H139.845V204.56Z" fill="#6246EA"/>
<path d="M22.4858 217.373L19.6066 214.531H11.0148L9.91797 215.614C11.1519 217.779 12.4772 219.855 13.894 221.93V218.772H16.7732V225.765C18.2356 227.615 19.7895 229.419 21.389 231.134L22.4858 230.051V217.373Z" fill="#6246EA"/>
<path d="M26.7825 214.576L23.9033 217.418V230.141L26.7825 232.984H35.3744L38.2535 230.141V217.418L35.3744 214.576H26.7825ZM32.4952 228.698H29.616V218.817H32.4952V228.698Z" fill="#6246EA"/>
<path d="M45.3816 214.576H39.6689V232.939H45.3816V214.576Z" fill="#6246EA"/>
<path d="M49.679 214.576L46.7998 217.418V230.141L49.679 232.984H58.2708L61.15 230.141V217.418L58.2708 214.576H49.679ZM55.3917 228.698H52.5125V218.817H55.3917V228.698Z" fill="#6246EA"/>
<path d="M65.4456 214.576L62.5664 217.418V230.141L65.4456 232.984H74.0374L76.9166 230.141V217.418L74.0374 214.576H65.4456ZM71.1583 228.698H68.2791V218.817H71.1583V228.698Z" fill="#6246EA"/>
<path d="M83.9988 214.576H78.2861V232.939H83.9988V214.576Z" fill="#6246EA"/>
<path d="M96.932 232.939L99.8112 230.096V217.373L96.932 214.531H88.3401L85.4609 217.373V230.096L88.3401 232.939H96.932ZM91.1736 218.817H94.0528V228.698H91.1736V218.817Z" fill="#6246EA"/>
<path d="M106.94 214.576H101.228V232.939H106.94V214.576Z" fill="#6246EA"/>
<path d="M119.828 232.939L122.708 230.096V217.373L119.828 214.531H111.237L108.357 217.373V230.096L111.237 232.939H119.828ZM114.116 218.817H116.995V228.698H114.116V218.817Z" fill="#6246EA"/>
<path d="M127.003 214.576L124.124 217.418V230.141L125.815 231.811C127.232 230.367 128.557 228.833 129.837 227.254V218.817H132.716V223.464C134.361 221.118 135.915 218.727 137.24 216.2L135.549 214.531H127.003V214.576Z" fill="#6246EA"/>
<path d="M32.498 238.668V241.014C34.3261 242.368 36.2456 243.631 38.2107 244.759V238.623H32.498V238.668Z" fill="#6246EA"/>
<path d="M51.096 238.668H42.5042L39.625 241.511V245.616C41.4988 246.654 43.3725 247.647 45.3377 248.504V242.909H48.2168V249.722C50.0906 250.444 52.0101 251.121 53.9295 251.707V241.511L51.096 238.668Z" fill="#6246EA"/>
<path d="M69.7399 241.511L66.8607 238.668H58.2688L55.3896 241.511V252.158C59.9141 253.376 64.6213 254.189 69.5114 254.459L69.6942 254.279V241.511H69.7399ZM63.9815 252.835H61.1023V242.954H63.9815V252.835Z" fill="#6246EA"/>
<path d="M71.1582 238.668V254.504C71.4781 254.504 71.798 254.549 72.1179 254.549C73.7175 254.595 75.317 254.549 76.8709 254.459V238.713H71.1582V238.668Z" fill="#6246EA"/>
<path d="M78.2861 238.668V254.324C80.2056 254.189 82.125 253.963 83.9988 253.647V238.623H78.2861V238.668Z" fill="#6246EA"/>
<path d="M96.932 238.668H88.3401L85.4609 241.511V253.467C87.3804 253.106 89.2998 252.7 91.1736 252.203V242.954H94.0528V251.346C95.9722 250.76 97.8917 250.083 99.7654 249.316V241.511L96.932 238.668Z" fill="#6246EA"/>
<path d="M101.228 238.668V248.729C103.193 247.917 105.066 246.97 106.94 245.977V238.668H101.228Z" fill="#6246EA"/>
<path d="M108.357 241.511V245.21C111.785 243.27 115.076 241.105 118.137 238.668H111.237L108.357 241.511Z" fill="#6246EA"/>
<path d="M100.195 143.128C72.5782 145.464 60.3658 176.197 39.2718 173.357C31.9629 172.35 21.4621 167.037 10.7301 144.869C6.10419 152.38 -0.0944947 165.021 0.0442819 180.915C0.321835 215.632 30.7139 254.93 72.9945 255.663C105.052 256.213 134.334 234.365 143.678 205.693C150.015 186.319 145.575 169.052 143.077 161.403C133.27 152.518 117.912 141.663 100.195 143.128Z" fill="#6246EA"/>
<path d="M106.392 0V53.0575H44.2839V0H27.6943V124.658C32.7215 120.552 38.297 117.123 44.2839 114.416V71.7358H40.5821C39.3025 71.7358 38.2513 70.6982 38.2513 69.4349V68.9837C38.2513 67.7204 39.3025 66.6828 40.5821 66.6828H110.277C111.556 66.6828 112.607 67.7204 112.607 68.9837V69.4349C112.607 70.6982 111.556 71.7358 110.277 71.7358H106.392V114.326C112.47 117.033 118.092 120.507 123.164 124.658V0H106.392Z" fill="white"/>
</svg>
