<svg width="336" height="292" viewBox="0 0 336 292" fill="none" xmlns="http://www.w3.org/2000/svg">
<path d="M140.214 0C130.61 0 121.936 5.74095 118.183 14.5813L10.457 268.359C5.86237 279.183 13.8063 291.185 25.5649 291.185C32.112 291.185 38.0328 287.294 40.6305 281.284L122.905 90.9439C131.241 71.6597 158.602 71.705 166.873 91.0167L189.639 144.168C192.082 149.872 197.69 153.57 203.895 153.57C215.019 153.57 222.526 142.204 218.159 131.973L168.034 14.5377C164.271 5.72064 155.609 0 146.022 0H140.214Z" fill="url(#paint0_linear_494_31)"/>
<path d="M85.5328 291.185C75.6116 291.185 68.9728 280.976 72.9966 271.908L128.592 146.611C133.987 134.454 151.694 135.935 154.994 148.82C155.782 151.895 155.502 155.147 154.202 158.043L98.0439 283.089C95.8313 288.015 90.9335 291.185 85.5328 291.185Z" fill="url(#paint1_linear_494_31)"/>
<path d="M177.914 167.531C171.526 167.531 165.07 172.766 162.63 178.669C158.209 189.368 166.799 199.442 178.374 199.442H185.884C195.04 199.442 203.204 205.208 206.265 213.837L229.617 279.667C231.643 285.376 237.043 289.19 243.101 289.19C252.869 289.19 259.765 279.618 256.671 270.353L240.164 220.911C236.638 210.351 244.498 199.442 255.631 199.442C262.316 199.442 268.324 203.523 270.788 209.738L298.408 279.399C300.751 285.31 306.464 289.19 312.822 289.19C323.865 289.19 331.369 277.974 327.154 267.767L223.255 16.1377C221.216 11.1992 216.401 7.97754 211.058 7.97754C201.783 7.97754 195.402 17.2924 198.752 25.9407L240.978 134.953C247.053 150.638 235.48 167.531 218.661 167.531H177.914Z" fill="url(#paint2_linear_494_31)"/>
<defs>
<linearGradient id="paint0_linear_494_31" x1="-6.72365" y1="145.592" x2="232.996" y2="145.592" gradientUnits="userSpaceOnUse">
<stop stop-color="#F7F5FF"/>
<stop offset="1" stop-color="#F1EDFD"/>
</linearGradient>
<linearGradient id="paint1_linear_494_31" x1="-6.72365" y1="145.592" x2="232.996" y2="145.592" gradientUnits="userSpaceOnUse">
<stop stop-color="#F7F5FF"/>
<stop offset="1" stop-color="#F1EDFD"/>
</linearGradient>
<linearGradient id="paint2_linear_494_31" x1="154.338" y1="149.581" x2="337.873" y2="149.581" gradientUnits="userSpaceOnUse">
<stop stop-color="#543BCF"/>
<stop offset="1" stop-color="#755CEF"/>
</linearGradient>
</defs>
</svg>
