<svg viewBox="0 0 43 36" fill="none" xmlns="http://www.w3.org/2000/svg">
<path d="M16.1658 0.433167C15.3837 0.433167 14.6735 0.888954 14.3476 1.59986L0.2986 32.2523C-0.308587 33.577 0.659441 35.0856 2.11673 35.0856H2.29971C3.07612 35.0856 3.78237 34.6362 4.11133 33.9329L15.695 9.16786C16.4176 7.6229 18.6184 7.63342 19.3263 9.18522L23.2598 17.8087C23.5804 18.5116 24.2818 18.9626 25.0544 18.9626C26.4889 18.9626 27.4437 17.4799 26.8501 16.1739L20.2281 1.60556C19.9036 0.891572 19.1916 0.433167 18.4074 0.433167H16.1658Z" fill="black"/>
<path d="M10.1732 35.0856C8.89436 35.0856 8.05063 33.7545 8.59643 32.5979L15.4701 18.0323C16.1763 16.5358 18.3636 16.7273 18.7991 18.3238C18.9114 18.7359 18.872 19.1746 18.6879 19.56L11.7466 34.0934C11.4571 34.6996 10.845 35.0856 10.1732 35.0856Z" fill="black"/>
<path d="M23.5783 20.8877C22.8208 20.8877 22.1266 21.3147 21.7995 21.9979C21.6614 22.2863 21.5196 22.5873 21.3849 22.8804C20.9237 23.8841 21.5532 24.738 22.6578 24.738H25.2914C26.1233 24.738 26.8683 25.253 27.1623 26.0312L30.3186 34.3859C30.587 35.0966 31.2674 35.5669 32.0271 35.5669C33.2891 35.5669 34.1708 34.3176 33.748 33.1286L31.714 27.408C31.2511 26.106 32.2166 24.738 33.5985 24.738H33.7697C34.5737 24.738 35.2995 25.2194 35.6122 25.96L39.1594 34.3613C39.4679 35.0919 40.184 35.5669 40.9771 35.5669C42.4015 35.5669 43.3566 34.1036 42.7832 32.7997L29.5219 2.64092C29.2535 2.03048 28.6497 1.63638 27.9828 1.63638C26.7857 1.63638 25.9721 2.85209 26.4286 3.95881L32.2722 18.1251C32.8152 19.4416 31.8474 20.8877 30.4233 20.8877H23.5783Z" fill="#9333EA"/>
</svg>
