<svg  viewBox="0 0 179 180" fill="none" xmlns="http://www.w3.org/2000/svg">
<rect y="89.7676" width="126.227" height="126.227" rx="30" transform="rotate(-45 0 89.7676)" fill="url(#paint0_linear_850_48)" stroke="#9333EA" stroke-width="2.74406"/>
<path fill-rule="evenodd" clip-rule="evenodd" d="M102.146 77.9248C103.023 80.4639 103.656 83.0561 103.863 85.7429C104.122 89.0761 104.003 92.3858 103.301 95.6643C103.282 95.7546 103.241 95.8393 103.211 95.9268C102.991 95.9274 102.766 95.9 102.55 95.9334C100.73 96.2194 98.911 96.5158 97.0921 96.8106C95.2119 97.1152 93.329 97.4078 91.4522 97.7332C90.7872 97.848 89.9641 97.7107 89.6956 98.6306C89.6879 98.6557 89.6114 98.6601 89.5671 98.6743L89.6579 93.1777L89.5654 79.9149L90.4415 79.7645C91.8743 79.5299 93.3072 79.292 94.7411 79.0639C96.4522 78.7921 98.165 78.528 99.8773 78.2628C100.633 78.1452 101.389 78.0375 102.146 77.9248Z" fill="#E6E6E6"/>
<path fill-rule="evenodd" clip-rule="evenodd" d="M87.7585 114.698C86.8343 113.903 85.8778 113.143 84.9919 112.308C80.2248 107.811 76.7379 102.519 75.0207 96.1388C74.5476 94.3828 74.2321 92.5983 74.1309 90.7838C74.0598 89.5139 73.957 88.2326 74.0467 86.9693C74.2857 83.6093 74.7713 80.2816 75.7568 77.0452L75.8109 76.9697C75.9066 77.0971 76.0444 77.2098 76.0931 77.3536C77.0551 80.1864 78.0099 83.0214 78.9598 85.8581C81.9447 94.7721 84.9257 103.688 87.9155 112.6C87.974 112.774 88.1255 112.917 88.2343 113.074L87.7585 114.698Z" fill="#E6E6E6"/>
<path fill-rule="evenodd" clip-rule="evenodd" d="M102.145 77.9244C101.388 78.0371 100.632 78.1448 99.8763 78.2613C98.164 78.5265 96.4512 78.7906 94.74 79.0624C93.3061 79.2905 91.8733 79.5284 90.4405 79.763L89.5644 79.9134L89.5578 79.3419C89.5288 78.8721 89.4791 78.4029 89.4736 77.9331C89.4359 74.9374 89.4124 71.9416 89.3752 68.9458C89.3522 67.0706 89.3178 65.1959 89.2795 63.3212C89.256 62.1563 89.2308 60.991 89.1783 59.8278C89.1499 59.2027 89.0492 58.5809 89.0082 57.9558C88.9853 57.5965 89.017 57.2345 89.0241 56.8735C89.4709 57.7392 89.9078 58.6115 90.3672 59.4706C91.0929 60.8291 92.249 61.8299 93.2897 62.922C97.4038 67.2379 100.325 72.256 102.145 77.9244Z" fill="#E6E6E6"/>
<path fill-rule="evenodd" clip-rule="evenodd" d="M89.5662 98.6733C89.6105 98.6591 89.6876 98.6547 89.6947 98.6295C89.9632 97.7097 90.7862 97.847 91.4512 97.7321C93.3281 97.4073 95.211 97.1142 97.0912 96.8096C98.9101 96.5148 100.729 96.2184 102.55 95.9324C102.765 95.8985 102.99 95.9263 103.21 95.9258C102.87 97.1399 102.602 98.3802 102.171 99.5609C101.681 100.9 101.088 102.207 100.458 103.489C99.5159 105.4 98.3497 107.192 96.984 108.828C95.9345 110.09 94.7648 111.256 93.5923 112.409C92.9442 113.046 92.1802 113.565 91.4693 114.137L91.285 114.012L90.6211 113.444L89.9342 111.938C89.465 110.182 89.2091 108.376 89.1719 106.558L89.1845 106.251L89.278 104.925C89.3091 104.472 89.3507 104.02 89.3698 103.566C89.4404 101.935 89.5016 100.304 89.5662 98.6733Z" fill="#E6E6E6"/>
<path fill-rule="evenodd" clip-rule="evenodd" d="M89.5663 98.6736C89.5018 100.304 89.4405 101.935 89.3711 103.566C89.352 104.02 89.3104 104.473 89.2792 104.925L88.8609 105.083C87.9317 102.348 87.002 99.6415 86.0926 96.9279C84.5887 92.4387 83.1028 87.9422 81.6011 83.4519C80.3882 79.8274 79.1668 76.2058 77.937 72.5871C77.8796 72.4176 77.7145 72.2852 77.5996 72.1354L80.2771 67.2124C80.369 67.3721 80.4904 67.5214 80.5484 67.6931C81.7884 71.3583 83.0222 75.0257 84.2496 78.6951C85.8443 83.4694 87.4291 88.2474 89.0227 93.0222C89.0862 93.213 89.1912 93.3891 89.2912 93.603L89.6577 93.1764L89.5663 98.6736Z" fill="#E6E6E6"/>
<path fill-rule="evenodd" clip-rule="evenodd" d="M77.6009 72.1357C77.7157 72.2856 77.8804 72.4179 77.9383 72.5875C79.1681 76.2062 80.3895 79.8278 81.6024 83.4522C83.1041 87.9426 84.59 92.439 86.0939 96.9283C87.0028 99.6414 87.9325 102.348 88.8621 105.084L89.2805 104.926L89.187 106.253L89.1022 106.558C88.9568 108.011 88.8343 109.467 88.6571 110.916C88.5679 111.642 88.3787 112.355 88.2349 113.074C88.1266 112.917 87.9746 112.775 87.9161 112.601C84.9263 103.688 81.9453 94.7725 78.9604 85.8585C78.0108 83.0216 77.0553 80.1868 76.0937 77.354C76.045 77.2102 75.9078 77.0975 75.8115 76.9701L77.6009 72.1357Z" fill="#E6E6E6"/>
<path fill-rule="evenodd" clip-rule="evenodd" d="M89.6569 93.1768L89.2905 93.6033C89.1904 93.3895 89.0854 93.2129 89.022 93.0226C87.4289 88.2478 85.8436 83.4697 84.2489 78.6955C83.0214 75.0261 81.7877 71.3587 80.5476 67.6935C80.4902 67.5218 80.3688 67.3719 80.2764 67.2128L83.5877 62.8569C83.6921 62.9964 83.8409 63.1205 83.895 63.2775C84.8143 65.9687 85.7254 68.6631 86.6311 71.3592C87.4771 73.877 88.3105 76.3987 89.1664 78.9132C89.2238 79.0816 89.4234 79.2008 89.5568 79.343L89.5634 79.9145C89.5951 84.3344 89.6263 88.7558 89.6569 93.1768Z" fill="#E6E6E6"/>
<path fill-rule="evenodd" clip-rule="evenodd" d="M89.558 79.3418C89.4246 79.1996 89.225 79.0804 89.1675 78.912C88.3117 76.3974 87.4782 73.8758 86.6322 71.358C85.7266 68.6619 84.8155 65.968 83.8962 63.2763C83.8421 63.1193 83.6933 62.9952 83.5889 62.8557C84.6657 61.8013 85.7091 60.7092 86.8291 59.7035C87.825 58.8099 88.6256 57.8518 88.6622 56.4398C88.6639 56.3813 88.6945 56.3228 88.7415 56.1587L89.0254 56.8729C89.0182 57.2344 88.986 57.5959 89.0095 57.9552C89.0505 58.5803 89.1511 59.2021 89.1796 59.8271C89.2321 60.9903 89.2572 62.1557 89.2807 63.3206C89.3185 65.1953 89.3529 67.0699 89.3764 68.9452C89.4131 71.941 89.4372 74.9367 89.4749 77.9325C89.4793 78.4034 89.5285 78.872 89.558 79.3418Z" fill="#E6E6E6"/>
<path fill-rule="evenodd" clip-rule="evenodd" d="M88.2336 113.074C88.3774 112.355 88.5666 111.641 88.6558 110.915C88.8335 109.467 88.9555 108.01 89.1009 106.558L89.137 106.552L89.1731 106.558C89.2103 108.376 89.4663 110.182 89.9355 111.938C89.8392 112.065 89.703 112.178 89.6522 112.322C89.2546 113.443 88.88 114.573 88.4802 115.694C88.4255 115.847 88.2735 115.966 88.1663 116.101L87.7578 114.697L88.2336 113.074Z" fill="#E6E6E6"/>
<path fill-rule="evenodd" clip-rule="evenodd" d="M88.167 116.101C88.2742 115.967 88.4268 115.847 88.4809 115.694C88.8807 114.573 89.2558 113.444 89.6529 112.322C89.7037 112.179 89.8393 112.066 89.9361 111.939L90.6225 113.445C90.4868 113.638 90.2998 113.811 90.2243 114.025L88.9096 117.886C88.8555 118.04 88.6707 118.15 88.5471 118.281L88.167 116.101Z" fill="#E6E6E6"/>
<path fill-rule="evenodd" clip-rule="evenodd" d="M88.5469 118.28C88.671 118.15 88.8553 118.04 88.9095 117.885L90.2241 114.025C90.2991 113.811 90.4866 113.637 90.6223 113.444L91.2867 114.011C90.9657 114.329 90.7874 114.695 90.8946 115.158L90.6928 115.819C90.6009 115.932 90.468 116.031 90.4227 116.16C89.9638 117.474 89.5258 118.796 89.0637 120.11C89.0052 120.276 88.8427 120.407 88.7279 120.554C88.6683 119.795 88.6076 119.038 88.5469 118.28Z" fill="#E6E6E6"/>
<path fill-rule="evenodd" clip-rule="evenodd" d="M88.7286 120.554C88.8429 120.407 89.0053 120.276 89.0644 120.11C89.5265 118.796 89.9646 117.475 90.4234 116.16C90.4688 116.031 90.6011 115.932 90.6936 115.819L90.4152 118.851C90.3408 118.937 90.2331 119.012 90.1975 119.112C89.8831 119.995 89.5867 120.884 89.2711 121.767C89.2061 121.949 89.0814 122.11 88.984 122.28C88.8976 122.166 88.7428 122.057 88.7357 121.939C88.7078 121.479 88.727 121.016 88.7286 120.554Z" fill="#E6E6E6"/>
<path fill-rule="evenodd" clip-rule="evenodd" d="M88.9834 122.28C89.0807 122.109 89.2054 121.949 89.2705 121.767C89.5866 120.885 89.8825 119.996 90.1969 119.112C90.2325 119.012 90.3407 118.938 90.4146 118.852L90.4211 120.842L89.755 122.551L88.9834 122.28Z" fill="#E6E6E6"/>
<path fill-rule="evenodd" clip-rule="evenodd" d="M89.7549 122.551L90.421 120.843L90.5582 122.864L89.7549 122.551Z" fill="#E6E6E6"/>
<path fill-rule="evenodd" clip-rule="evenodd" d="M90.8945 115.159C90.7873 114.696 90.9651 114.329 91.2866 114.012L91.4709 114.138L90.8945 115.159Z" fill="#E6E6E6"/>
<path fill-rule="evenodd" clip-rule="evenodd" d="M89.1738 106.559L89.1377 106.553L89.1016 106.559L89.1863 106.253L89.1738 106.559Z" fill="#E6E6E6"/>
<defs>
<linearGradient id="paint0_linear_850_48" x1="135.831" y1="80.6207" x2="4.03445e-06" y2="215.994" gradientUnits="userSpaceOnUse">
<stop stop-color="#9333EA" stop-opacity="0.5"/>
<stop offset="1" stop-color="#9333EA" stop-opacity="0"/>
</linearGradient>
</defs>
</svg>
