<svg viewBox="0 0 180 180" fill="none" xmlns="http://www.w3.org/2000/svg">
<rect x="0.511719" y="89.7676" width="126.227" height="126.227" rx="30" transform="rotate(-45 0.511719 89.7676)" fill="url(#paint0_linear_850_67)" stroke="#9333EA" stroke-width="2.74406"/>
<path d="M118.468 108C114.715 107.898 111.849 108.247 109.398 109.28C108.702 109.574 107.591 109.582 107.477 110.455C107.86 110.855 107.92 111.455 108.224 111.948C108.809 112.894 109.796 114.164 110.678 114.829C111.642 115.556 112.634 116.333 113.667 116.963C115.503 118.082 117.553 118.722 119.321 119.844C120.364 120.506 121.399 121.338 122.416 122.084C122.919 122.453 123.256 123.027 123.91 123.258V123.152C123.566 122.715 123.478 122.114 123.163 121.658L121.775 120.27C120.419 118.47 118.697 116.888 116.866 115.575C115.407 114.528 112.14 113.112 111.532 111.414L111.425 111.308C112.46 111.191 113.671 110.817 114.626 110.56C116.231 110.13 117.665 110.241 119.321 109.814L121.562 109.173V108.747C120.725 107.887 120.127 106.75 119.215 105.972C116.825 103.938 114.217 101.905 111.532 100.21C110.043 99.2704 108.202 98.6595 106.623 97.8627C106.092 97.5942 105.159 97.4548 104.809 97.0085C103.979 95.9519 103.528 94.6121 102.889 93.3811C101.55 90.8015 100.234 87.9845 99.0476 85.2704C98.2382 83.4197 97.7094 81.5954 96.6999 79.9351C91.8546 71.9687 86.6396 67.1612 78.5606 62.4351C76.8412 61.4299 74.7713 61.0334 72.5838 60.5139C71.4107 60.4433 70.2366 60.3717 69.063 60.3001C68.3461 60.0015 67.6012 59.1248 66.9291 58.6994C64.2527 57.0084 57.3872 53.3307 55.4054 58.1662C54.1536 61.2183 57.2762 64.1955 58.3924 65.7426C59.1766 66.8265 60.1801 68.0433 60.7401 69.2633C61.1087 70.0656 61.1721 70.8701 61.4877 71.7183C62.2626 73.8084 62.938 76.0823 63.9415 78.0133C64.4485 78.9912 65.0074 80.0204 65.6489 80.8943C66.0415 81.4308 66.7158 81.667 66.8219 82.495C66.1635 83.417 66.1257 84.8487 65.7555 86.0169C64.0875 91.2751 64.717 97.8113 67.1429 101.703C67.8867 102.898 69.6405 105.46 72.0511 104.477C74.1599 103.619 73.689 100.956 74.2922 98.6081C74.4284 98.076 74.3447 97.6844 74.6121 97.3279V97.4345L76.5333 101.276C77.9552 103.566 80.4774 105.958 82.6157 107.572C83.7242 108.41 84.597 109.857 86.0303 110.347V110.24H85.9237C85.6459 109.807 85.2111 109.628 84.8568 109.28C84.0217 108.461 83.0931 107.443 82.4029 106.506C80.4582 103.866 78.74 100.977 77.1743 97.9694C76.4261 96.5327 75.7759 94.949 75.1459 93.4872C74.9031 92.9239 74.9064 92.0713 74.4 91.7798C73.7093 92.8506 72.6926 93.7169 72.1589 94.9812C71.3052 97.0025 71.1953 99.4678 70.8786 102.024C70.6916 102.091 70.7747 102.045 70.6648 102.13C69.1784 101.772 68.6567 100.242 68.1038 98.9291C66.7071 95.6096 66.4473 90.2655 67.6767 86.4445C67.995 85.4552 69.4321 82.3424 68.8503 81.4286C68.5725 80.5175 67.6559 79.9903 67.1435 79.2941C66.5086 78.4333 65.8753 77.3002 65.435 76.306C64.2921 73.7187 63.7583 70.8132 62.5546 68.1969C61.9788 66.9462 61.0059 65.6802 60.2069 64.569C59.3226 63.3369 58.3317 62.4296 57.6459 60.9405C57.402 60.4111 57.0711 59.5634 57.4321 59.0193C57.5469 58.6523 57.7099 58.4992 58.0725 58.3794C58.6915 57.902 60.4153 58.538 61.0595 58.8055C62.7707 59.5164 64.1991 60.1934 65.6489 61.1537C66.3439 61.6153 67.0483 62.5072 67.8894 62.7544H68.8497C70.352 63.0995 72.0347 62.8611 73.4386 63.2876C75.9192 64.0412 78.1422 65.2143 80.1607 66.489C86.3109 70.373 91.34 75.9008 94.7798 82.4955C95.3332 83.5576 95.5728 84.5704 96.06 85.6969C97.0433 87.9681 98.282 90.3049 99.2603 92.5263C100.237 94.7422 101.189 96.9784 102.569 98.8225C103.295 99.7915 106.097 100.312 107.371 100.85C108.264 101.227 109.726 101.621 110.572 102.13C112.187 103.105 113.753 104.264 115.268 105.332C116.024 105.865 118.352 107.036 118.468 108ZM70.7704 67.3449C69.9878 67.3301 69.4343 67.4302 68.8492 67.5576V67.6643H68.9558C69.3293 68.431 69.9883 68.9254 70.4493 69.5855C70.8048 70.333 71.1608 71.0795 71.5168 71.826L71.6229 71.7205C72.2841 71.254 72.5865 70.5097 72.5827 69.3722C72.318 69.0938 72.2792 68.7449 72.0495 68.4124C71.7454 67.9689 71.1554 67.7168 70.7704 67.3449Z" fill="#E6E6E6"/>
<defs>
<linearGradient id="paint0_linear_850_67" x1="136.343" y1="80.6207" x2="0.511723" y2="215.994" gradientUnits="userSpaceOnUse">
<stop stop-color="#9333EA" stop-opacity="0.5"/>
<stop offset="1" stop-color="#9333EA" stop-opacity="0"/>
</linearGradient>
</defs>
</svg>
