<svg  viewBox="0 0 179 179" fill="none" xmlns="http://www.w3.org/2000/svg">
<rect y="89.2559" width="126.227" height="126.227" rx="30" transform="rotate(-45 0 89.2559)" fill="url(#paint0_linear_871_2)" stroke="#9333EA" stroke-width="2.74406"/>
<path d="M115.798 70.6499L91.6468 56.6267C90.1238 55.7592 88.1406 55.7592 86.6055 56.6267L62.1968 70.6499C60.625 71.5541 59.5127 73.2535 59.5127 75.0712V103.08C59.5127 104.898 60.654 106.598 62.2259 107.507L68.6747 111.17C71.757 112.688 72.8463 112.688 74.2489 112.688C78.8127 112.688 81.4196 109.928 81.4196 105.115V77.4629C81.4196 77.0724 81.2164 76.4913 80.833 76.4913H77.7535C77.3635 76.4913 76.4905 77.0724 76.4905 77.4624V105.114C76.4905 107.248 74.5605 109.371 70.9536 107.568L64.29 103.727C64.0578 103.601 63.8941 103.348 63.8941 103.08V75.0712C63.8941 74.8072 64.198 74.5422 64.4319 74.4069L88.7617 60.4078C88.989 60.2791 89.3231 60.2791 89.5498 60.4078L113.583 74.4036C113.813 74.5422 113.732 74.799 113.732 75.0712V103.08C113.732 103.348 113.832 103.608 113.605 103.736L89.46 117.744C89.2529 117.868 88.9961 117.868 88.7694 117.744L82.5768 114.047C82.3901 113.939 82.1683 113.9 81.9892 114C80.2662 114.977 79.9485 115.107 78.3324 115.667C77.9348 115.805 77.3482 116.046 78.5569 116.723L86.6614 121.518C87.4351 121.965 88.3129 122.2 89.2064 122.2C90.1057 122.2 90.9863 121.967 91.7624 121.518L115.797 107.507C117.369 106.591 118.114 104.898 118.114 103.08V75.0712C118.114 73.2535 117.369 71.5584 115.798 70.6499ZM96.7051 98.6419C90.2831 98.6419 88.8685 96.8702 88.3969 93.6767C88.3422 93.3328 88.0503 92.9215 87.7003 92.9215H84.5616C84.1733 92.9215 83.8611 93.3925 83.8611 93.7792C83.8611 97.8681 86.0841 102.822 96.7057 102.822C104.394 102.822 108.803 99.8348 108.803 94.5475C108.803 89.3052 105.261 87.9295 97.8043 86.9426C90.2672 85.9464 89.5016 85.443 89.5016 83.6773C89.5016 82.2216 90.15 80.2801 95.7308 80.2801C100.717 80.2801 102.555 81.3503 103.312 84.7113C103.376 85.0274 103.665 85.2541 103.991 85.2541H107.142C107.336 85.2541 107.521 85.1758 107.657 85.0372C107.788 84.8882 107.858 84.7015 107.84 84.501C107.352 78.7132 103.507 76.016 95.7303 76.016C88.8126 76.016 84.6859 78.9372 84.6859 83.834C84.6859 89.1453 88.7918 90.6131 95.4323 91.2697C103.376 92.0485 103.994 93.2096 103.994 94.7721C103.994 97.4858 101.815 98.6419 96.7051 98.6419Z" fill="#E6E6E6"/>
<defs>
<linearGradient id="paint0_linear_871_2" x1="135.831" y1="80.109" x2="4.03445e-06" y2="215.483" gradientUnits="userSpaceOnUse">
<stop stop-color="#9333EA" stop-opacity="0.5"/>
<stop offset="1" stop-color="#9333EA" stop-opacity="0"/>
</linearGradient>
</defs>
</svg>
