<svg viewBox="0 0 180 180" fill="none" xmlns="http://www.w3.org/2000/svg">
<rect x="0.511719" y="89.7676" width="126.227" height="126.227" rx="30" transform="rotate(-45 0.511719 89.7676)" fill="url(#paint0_linear_850_22)" stroke="#9333EA" stroke-width="2.74406"/>
<path d="M89.597 95.8434C93.0452 95.8434 95.8404 93.0481 95.8404 89.5999C95.8404 86.1517 93.0452 83.3564 89.597 83.3564C86.1488 83.3564 83.3535 86.1517 83.3535 89.5999C83.3535 93.0481 86.1488 95.8434 89.597 95.8434Z" fill="#E6E6E6"/>
<path d="M113.312 79.3035C112.107 78.8654 110.847 78.4272 109.533 78.0439C109.862 76.7295 110.135 75.415 110.355 74.1554C111.505 66.9261 110.245 61.8328 106.74 59.8611C105.699 59.2587 104.549 58.9849 103.235 58.9849C99.4011 58.9849 94.5268 61.8328 89.5978 66.5975C84.6687 61.8328 79.7944 58.9849 75.9607 58.9849C74.6463 58.9849 73.4962 59.2587 72.4556 59.8611C68.9505 61.8875 67.6909 66.9809 68.841 74.1554C69.0601 75.415 69.3339 76.7295 69.6625 78.0439C68.3481 78.4272 67.0884 78.8106 65.8836 79.3035C59.0376 81.9323 55.3135 85.547 55.3135 89.5998C55.3135 93.6525 59.0924 97.2672 65.8836 99.896C67.0884 100.334 68.3481 100.772 69.6625 101.156C69.3339 102.47 69.0601 103.784 68.841 105.044C67.6909 112.273 68.9505 117.367 72.4556 119.338C73.4962 119.941 74.6463 120.215 75.9607 120.215C79.8492 120.215 84.7235 117.367 89.5978 112.602C94.5268 117.367 99.4011 120.215 103.235 120.215C104.549 120.215 105.699 119.941 106.74 119.338C110.245 117.312 111.505 112.219 110.355 105.044C110.135 103.784 109.862 102.47 109.533 101.156C110.847 100.772 112.107 100.389 113.312 99.896C120.158 97.2672 123.882 93.6525 123.882 89.5998C123.882 85.547 120.158 81.9323 113.312 79.3035ZM105.206 62.5995C107.452 63.9139 108.219 67.9667 107.288 73.7173C107.123 74.8674 106.849 76.0722 106.521 77.3319C103.673 76.6747 100.661 76.2365 97.4842 75.9627C95.6222 73.3339 93.7053 70.9789 91.7885 68.843C95.8412 64.845 99.9488 62.1066 103.29 62.1066C104.002 62.1066 104.659 62.2709 105.206 62.5995ZM99.0725 95.0765C98.0867 96.829 96.9366 98.5816 95.7317 100.334C93.7053 100.498 91.6789 100.553 89.5978 100.553C87.4618 100.553 85.4355 100.498 83.4638 100.334C82.259 98.5816 81.1636 96.829 80.1778 95.0765C79.1372 93.2692 78.1514 91.4071 77.2751 89.5998C78.1514 87.7924 79.1372 85.9303 80.1778 84.123C81.1636 82.3705 82.3137 80.6179 83.5186 78.8654C85.545 78.7011 87.5714 78.6463 89.6525 78.6463C91.7885 78.6463 93.8148 78.7011 95.7865 78.8654C96.9913 80.6179 98.0867 82.3705 99.0725 84.123C100.113 85.9303 101.099 87.7924 101.975 89.5998C101.044 91.4071 100.113 93.2144 99.0725 95.0765ZM103.618 93.2692C104.44 95.186 105.097 97.0481 105.699 98.9102C103.837 99.3483 101.866 99.6769 99.7845 99.9508C100.442 98.9102 101.154 97.8148 101.756 96.6647C102.413 95.5146 103.016 94.3645 103.618 93.2692ZM89.5978 108.111C88.2834 106.687 87.0237 105.154 85.8188 103.565C87.0785 103.62 88.3381 103.675 89.5978 103.675C90.8574 103.675 92.1171 103.62 93.3767 103.565C92.1718 105.154 90.9122 106.687 89.5978 108.111ZM79.4111 99.896C77.3299 99.6222 75.3583 99.2936 73.4962 98.8554C74.0986 97.0481 74.7558 95.1312 75.5774 93.2144C76.1798 94.3097 76.7822 95.4598 77.4394 96.5552C78.0966 97.7601 78.7539 98.8006 79.4111 99.896ZM75.5774 85.9303C74.7558 84.0135 74.0986 82.1514 73.4962 80.2893C75.3583 79.8512 77.3299 79.5226 79.4111 79.2487C78.7539 80.2893 78.0419 81.3847 77.4394 82.5348C76.7822 83.6849 76.1798 84.835 75.5774 85.9303ZM89.5978 71.0884C90.9122 72.5124 92.1718 74.0459 93.3767 75.6341C92.1171 75.5793 90.8574 75.5246 89.5978 75.5246C88.3381 75.5246 87.0785 75.5793 85.8188 75.6341C87.0237 74.0459 88.2834 72.5124 89.5978 71.0884ZM101.756 82.5895L99.7845 79.3035C101.866 79.5773 103.837 79.9059 105.699 80.3441C105.097 82.1514 104.44 84.0683 103.618 85.9851C103.016 84.835 102.413 83.6849 101.756 82.5895ZM71.908 73.7173C70.9769 67.9667 71.7436 63.9139 73.9891 62.5995C74.5368 62.2709 75.194 62.1066 75.906 62.1066C79.192 62.1066 83.2995 64.7902 87.4071 68.843C85.4902 70.9241 83.5734 73.3339 81.7113 75.9627C78.5348 76.2365 75.5226 76.7294 72.6747 77.3319C72.3461 76.0722 72.127 74.8674 71.908 73.7173ZM58.3804 89.5998C58.3804 87.0257 61.5022 84.2873 66.9789 82.2609C68.0742 81.8228 69.2791 81.4394 70.484 81.1108C71.3603 83.8492 72.4556 86.7519 73.77 89.6545C72.4556 92.5572 71.3055 95.4051 70.484 98.1434C62.9261 95.9528 58.3804 92.6667 58.3804 89.5998ZM73.9891 116.6C71.7436 115.286 70.9769 111.233 71.908 105.482C72.0723 104.332 72.3461 103.127 72.6747 101.868C75.5226 102.525 78.5348 102.963 81.7113 103.237C83.5734 105.866 85.4902 108.221 87.4071 110.357C83.3543 114.355 79.2468 117.093 75.906 117.093C75.194 117.093 74.5368 116.929 73.9891 116.6ZM107.288 105.482C108.219 111.233 107.452 115.286 105.206 116.6C104.659 116.929 104.002 117.093 103.29 117.093C100.004 117.093 95.896 114.409 91.7885 110.357C93.7053 108.275 95.6222 105.866 97.4842 103.237C100.661 102.963 103.673 102.47 106.521 101.868C106.849 103.127 107.069 104.332 107.288 105.482ZM112.217 96.9386C111.121 97.3767 109.916 97.7601 108.712 98.0887C107.835 95.3503 106.74 92.4476 105.425 89.545C106.74 86.6423 107.89 83.7944 108.712 81.0561C116.269 83.2468 120.815 86.5328 120.815 89.5998C120.815 92.1738 117.639 94.9122 112.217 96.9386Z" fill="#E6E6E6"/>
<defs>
<linearGradient id="paint0_linear_850_22" x1="136.343" y1="80.6207" x2="0.511723" y2="215.994" gradientUnits="userSpaceOnUse">
<stop stop-color="#9333EA" stop-opacity="0.5"/>
<stop offset="1" stop-color="#9333EA" stop-opacity="0"/>
</linearGradient>
</defs>
</svg>
