<svg  viewBox="0 0 179 180" fill="none" xmlns="http://www.w3.org/2000/svg">
<rect y="89.7676" width="126.227" height="126.227" rx="30" transform="rotate(-45 0 89.7676)" fill="url(#paint0_linear_850_18)" stroke="#9333EA" stroke-width="2.74406"/>
<path fill-rule="evenodd" clip-rule="evenodd" d="M54.7139 87.4156C54.7139 87.8275 54.8352 88.0994 54.9031 88.3637C55.3461 90.0822 56.2982 91.557 57.4279 92.9023C59.0369 94.8195 61.0074 96.3629 63.026 97.8143C64.7768 99.0729 66.5633 100.303 68.3211 101.553C68.6228 101.767 68.9082 102.014 69.2357 102.277C68.9539 102.429 68.7195 102.563 68.4758 102.687C66.1561 103.863 63.9242 105.182 61.867 106.78C60.6271 107.744 59.4283 108.767 58.5816 110.105C57.2193 112.256 56.7371 114.549 57.7525 116.996C58.049 117.711 58.5014 118.329 59.1395 118.785C59.3463 118.933 59.5783 119.079 59.8203 119.137C60.4402 119.282 61.0719 119.378 61.6994 119.493L63.4766 119.492C65.4418 119.317 67.2307 118.644 68.8473 117.528C71.3738 115.784 73.076 113.446 73.8078 110.446C74.3398 108.265 74.3615 106.082 73.7346 103.911C73.6746 103.71 73.6053 103.512 73.5271 103.317C73.451 103.122 73.3613 102.932 73.2559 102.689L77.2848 100.372L77.3451 100.423C77.2719 100.663 77.1939 100.902 77.1277 101.144C76.649 102.893 76.3309 104.671 76.4451 106.486C76.567 108.42 77.1066 110.23 78.2387 111.845C79.1539 113.152 81.3348 113.2 82.3074 111.889C82.6525 111.423 82.9871 110.936 83.2385 110.417C83.8953 109.06 84.5035 107.68 85.1311 106.309L85.2406 106.058C85.1955 106.707 85.1428 107.277 85.1187 107.848C85.0812 108.739 85.1334 109.625 85.4381 110.473C85.6988 111.198 86.1424 111.74 86.9732 111.836C87.5416 111.901 87.9945 111.641 88.4123 111.311C89.0595 110.799 89.596 110.162 89.9891 109.436C91.1029 107.391 92.2467 105.358 93.2562 103.261C94.3484 100.992 95.3035 98.658 96.3178 96.3512L96.4853 95.9422C96.725 96.8838 96.892 97.8061 97.1996 98.6791C97.557 99.6922 97.9994 100.681 98.481 101.643C98.709 102.097 98.6826 102.392 98.3668 102.772C97.0449 104.366 95.7459 105.979 94.4457 107.591C94.158 107.946 93.8715 108.308 93.6318 108.697C93.4864 108.942 93.3909 109.214 93.3506 109.496C93.3103 109.756 93.3721 110.021 93.5232 110.237C93.6743 110.452 93.9028 110.6 94.1609 110.651C94.6819 110.763 95.2161 110.801 95.7477 110.764C97.5623 110.63 99.21 109.994 100.667 108.914C102.554 107.516 103.16 105.608 102.703 103.347C102.579 102.734 102.361 102.137 102.148 101.546C102.052 101.279 102.046 101.093 102.22 100.844C103.729 98.6897 105.018 96.4039 106.217 94.0654C106.264 93.9734 106.313 93.8815 106.396 93.783C106.784 95.8045 107.369 97.7527 108.417 99.5205C107.882 100.036 107.353 100.503 106.875 101.017C105.82 102.15 104.906 103.381 104.429 104.881C104.224 105.528 104.067 106.186 104.158 106.876C104.3 107.949 105.179 108.646 106.234 108.402C108.492 107.879 110.442 106.815 111.866 104.93C112.825 103.661 112.912 102.246 112.511 100.763C112.401 100.36 112.27 99.9629 112.129 99.5006C112.687 99.3277 113.23 99.1203 113.792 98.992C116.709 98.3264 119.595 98.4424 122.406 99.4959C124.047 100.111 125.373 101.141 126.16 102.76C127.12 104.74 126.589 106.619 124.723 107.87C124.549 107.987 124.35 108.079 124.205 108.225C124.159 108.278 124.125 108.341 124.104 108.408C124.083 108.476 124.077 108.547 124.085 108.617C124.098 108.689 124.288 108.779 124.398 108.778C125.011 108.774 125.509 108.452 125.986 108.121C127.183 107.294 128.056 106.18 128.244 104.713L128.281 104.603L128.236 103.648C128.217 103.593 128.249 103.538 128.245 103.497C127.991 101.361 126.85 99.7045 125.19 98.4061C123.269 96.9031 120.999 96.2844 118.599 96.1865C116.653 96.1028 114.709 96.402 112.878 97.0672C112.352 97.2576 111.831 97.4832 111.303 97.6959C111.232 97.5676 111.155 97.4445 111.093 97.3174C110.55 96.2064 109.893 95.1447 109.747 93.8709C109.644 92.9662 109.518 92.0627 109.733 91.168C109.94 90.3072 110.209 89.4611 110.463 88.6121C110.594 88.175 110.502 87.9301 110.084 87.7332C109.939 87.6607 109.784 87.6098 109.624 87.582C108.598 87.4332 107.587 87.5182 106.594 87.807C106.242 87.9096 105.987 88.1064 105.909 88.4955C105.864 88.7188 105.774 88.9326 105.71 89.1529C105.451 90.0688 105.267 91.0021 104.847 91.8746C103.796 94.0631 102.596 96.1689 101.368 98.2596C101.235 98.4852 101.095 98.7066 100.927 98.9803C100.496 98.0779 100.036 97.2682 99.8967 96.3189C99.7391 95.2455 99.6148 94.1738 99.882 93.1086C100.081 92.3141 100.34 91.5342 100.579 90.7502C100.692 90.3775 100.64 90.1818 100.303 89.9855C100.132 89.8865 99.9394 89.7986 99.7473 89.7699C98.6958 89.6098 97.6216 89.6977 96.6101 90.0266C96.292 90.1297 96.125 90.3354 96.0277 90.6635C95.7418 91.6314 95.498 92.6229 95.0967 93.5434C93.4713 97.2699 91.799 100.977 90.1285 104.684C89.7799 105.458 89.3715 106.205 88.9783 106.958C88.8787 107.149 88.7334 107.318 88.6092 107.497C88.5096 107.379 88.4709 107.298 88.4715 107.217C88.4744 106.741 88.4176 106.251 88.5084 105.79C88.7873 104.397 89.0956 103.01 89.433 101.63C89.7084 100.49 90.0289 99.3605 90.3342 98.2279C90.4367 97.8488 90.4385 97.4943 90.166 97.1756C89.7084 96.6418 88.7521 96.5246 88.185 96.9359L87.9342 97.0777L87.9828 96.6734C88.1023 95.8068 88.1264 94.9432 87.8885 94.0895C87.592 93.0254 86.8326 92.4131 85.7287 92.4471C85.2143 92.4629 84.674 92.5508 84.1977 92.7383C82.1943 93.5234 80.6539 94.9139 79.3426 96.5867C79.221 96.742 79.0704 96.8722 78.899 96.9699C77.2039 97.9098 75.5035 98.8379 73.8037 99.7695L71.9117 100.806C71.4043 100.322 70.9432 99.8199 70.4199 99.3939C68.8221 98.0908 67.1984 96.8199 65.5895 95.5315C64.1633 94.3895 62.7816 93.2 61.7246 91.6877C60.9383 90.5627 60.4314 89.3316 60.3828 87.9406C60.3213 86.1682 60.824 84.5486 61.7264 83.041C62.8807 81.1121 64.4551 79.5641 66.1859 78.1619C68.017 76.6795 69.9975 75.4209 72.05 74.2719C74.9217 72.6646 77.8754 71.242 81.0424 70.3027C84.2896 69.3395 87.5844 68.7881 90.9828 69.1725C92.3187 69.3236 93.616 69.6295 94.8072 70.2828C95.7195 70.7826 96.4678 71.4371 96.8158 72.4602C97.1592 73.4668 97.1486 74.4869 96.9107 75.5094C96.4273 77.5801 95.2935 79.2869 93.8668 80.8121C91.5266 83.3123 88.6719 85.0145 85.458 86.1389C83.6101 86.7862 81.6875 87.1963 79.7363 87.3594C78.1373 87.4936 76.5717 87.3518 75.0576 86.7957C74.0551 86.4272 73.182 85.8635 72.4801 85.0455C72.3547 84.899 72.1941 84.7402 71.9604 84.8773C71.7312 85.0121 71.6908 85.2301 71.7676 85.451C71.8959 85.8178 72.0143 86.1998 72.2141 86.5279C72.7162 87.3512 73.4486 87.9482 74.2549 88.4604C75.8035 89.4453 77.5344 89.7764 79.3291 89.8531C82.0525 89.9709 84.7098 89.5643 87.3295 88.8336C91.0695 87.7906 94.3215 85.9484 96.9295 83.0422C99.101 80.6223 100.652 77.8912 100.984 74.5936C101.146 72.984 100.974 71.4072 100.22 69.9389C99.4027 68.348 98.1031 67.165 96.5492 66.35C94.2863 65.1635 91.8441 64.4727 89.3234 64.4727H86.798C83.7453 64.4727 80.7939 65.3475 77.9252 66.391C75.7537 67.1814 73.6244 68.1143 71.5572 69.1467C67.0555 71.3961 62.8631 74.1084 59.4195 77.8379C57.7039 79.6959 56.2514 81.7461 55.4158 84.1602C55.1636 84.8809 54.9464 85.6134 54.7648 86.3551M71.0768 107.456C70.8816 110.069 69.6975 112.187 67.7621 113.903C66.6734 114.867 65.4248 115.554 63.9705 115.796C63.4432 115.883 62.9035 115.904 62.392 115.685C61.6625 115.374 61.499 114.726 61.485 114.037C61.4633 112.937 61.8482 111.944 62.3762 110.998C63.0652 109.765 64.0754 108.825 65.1541 107.947C66.8533 106.564 68.6967 105.393 70.5846 104.288L70.727 104.23C71.0187 105.308 71.1576 106.372 71.0768 107.456ZM85.8178 96.1016C85.6801 96.9359 85.5078 97.7709 85.2641 98.5795C84.4215 101.379 83.3393 104.091 82.1691 106.767C81.9529 107.262 81.6383 107.714 81.3646 108.183C81.3181 108.255 81.2624 108.321 81.1988 108.379C80.8602 108.713 80.5391 108.696 80.368 108.258C80.1687 107.749 80.0463 107.205 79.9408 106.667C79.8699 106.305 79.8869 105.925 79.8646 105.555C79.8875 102.922 80.6908 100.529 82.0537 98.3012C82.6156 97.3824 83.2273 96.507 84.1619 95.9258C84.4526 95.745 84.7672 95.6058 85.0965 95.5121C85.5945 95.3721 85.9004 95.6023 85.8178 96.1016ZM95.8748 108.915L99.4894 104.694C99.64 106.262 96.9758 109.391 95.8748 108.915ZM107.42 106.075C107.164 106.221 106.886 106.327 106.624 106.462C106.384 106.586 106.305 106.461 106.298 106.255C106.295 106.112 106.313 105.969 106.353 105.832C106.841 104.111 107.739 102.641 109.075 101.446L109.169 101.398C109.805 103.176 109.07 105.129 107.42 106.075Z" fill="#E6E6E6"/>
<defs>
<linearGradient id="paint0_linear_850_18" x1="135.831" y1="80.6207" x2="4.03445e-06" y2="215.994" gradientUnits="userSpaceOnUse">
<stop stop-color="#9333EA" stop-opacity="0.5"/>
<stop offset="1" stop-color="#9333EA" stop-opacity="0"/>
</linearGradient>
</defs>
</svg>
