<svg width="32" height="32" viewBox="0 0 32 32" fill="none" xmlns="http://www.w3.org/2000/svg">
<path d="M3.33301 23.8415C4.61891 24.5524 13.9273 29.9182 20.5463 25.7827C27.1652 21.6471 26.8001 14.5222 26.8001 11.2573C27.3997 10.0012 28.6663 9.3626 28.6663 5.96253C27.4221 7.11187 26.1855 7.50293 24.9563 7.13573C23.7521 5.29971 22.0953 4.48765 19.9859 4.69956C16.8219 5.01743 15.6643 8.12167 16.0049 12.1378C11.1263 14.6049 7.30067 10.3493 5.32913 7.13573C4.67039 9.6666 4.03521 12.7051 5.32913 16.0663C6.19174 18.3071 8.26534 20.2016 11.5499 21.7497C8.22121 23.5539 5.48222 24.2511 3.33301 23.8415Z" stroke="#1B1B1B" stroke-width="1.33333" stroke-linejoin="round"/>
</svg>
