<svg width="32" height="32" viewBox="0 0 32 32" fill="none" xmlns="http://www.w3.org/2000/svg">
<path d="M3.33301 23.8415C4.61891 24.5525 13.9273 29.9183 20.5463 25.7827C27.1652 21.6472 26.8001 14.5223 26.8001 11.2574C27.3997 10.0013 28.6663 9.36268 28.6663 5.96261C27.4221 7.11195 26.1855 7.50301 24.9563 7.13581C23.7521 5.29979 22.0953 4.48773 19.9859 4.69964C16.8219 5.01751 15.6643 8.12175 16.0049 12.1379C11.1263 14.605 7.30067 10.3494 5.32913 7.13581C4.67039 9.66668 4.03521 12.7051 5.32913 16.0664C6.19174 18.3072 8.26534 20.2017 11.5499 21.7498C8.22121 23.5539 5.48222 24.2511 3.33301 23.8415Z" stroke="#E6E6E6" stroke-width="1.33333" stroke-linejoin="round"/>
</svg>
