<svg  viewBox="0 0 179 179" fill="none" xmlns="http://www.w3.org/2000/svg">
<rect x="0.0234375" y="89.2559" width="126.227" height="126.227" rx="30" transform="rotate(-45 0.0234375 89.2559)" fill="url(#paint0_linear_871_4)" stroke="#9333EA" stroke-width="2.74406"/>
<g clip-path="url(#clip0_871_4)">
<path d="M54.8438 88.9507V123.13H123.203V54.771H54.8438V88.9507ZM109.93 86.2163C111.568 86.5963 113.056 87.4526 114.207 88.6772C114.841 89.337 115.392 90.0716 115.848 90.8647C115.848 90.9522 112.895 92.9483 111.095 94.064C111.03 94.1077 110.767 93.8233 110.477 93.3913C110.149 92.8246 109.682 92.3503 109.121 92.0127C108.56 91.6751 107.922 91.4853 107.267 91.4608C105.195 91.3187 103.86 92.4069 103.871 94.1952C103.854 94.6404 103.956 95.0822 104.166 95.4749C104.62 96.421 105.468 96.9843 108.126 98.1327C113.02 100.238 115.115 101.627 116.416 103.601C117.871 105.789 118.194 109.322 117.209 111.936C116.116 114.78 113.436 116.71 109.646 117.35C107.915 117.548 106.166 117.53 104.44 117.295C101.794 116.859 99.3565 115.589 97.4836 113.669C96.8547 112.975 95.6297 111.165 95.7063 111.033C95.9059 110.885 96.1161 110.752 96.3352 110.634L98.8672 109.234L100.83 108.097L101.241 108.704C101.933 109.694 102.814 110.538 103.833 111.187C106.02 112.335 109.006 112.176 110.483 110.848C110.979 110.361 111.288 109.715 111.357 109.024C111.426 108.332 111.25 107.638 110.86 107.063C110.313 106.303 109.22 105.663 106.162 104.329C102.635 102.808 101.115 101.868 99.7258 100.369C98.8586 99.3806 98.2184 98.214 97.85 96.9515C97.5752 95.5091 97.5346 94.0318 97.7297 92.5765C98.457 89.1694 101.011 86.7905 104.741 86.0851C106.468 85.8713 108.218 85.9193 109.93 86.2272V86.2163ZM93.8852 89.0819V91.8819H85.0094V117.164H78.7148V91.8765H69.8172V89.1421C69.7895 88.1991 69.8114 87.2554 69.8828 86.3147C69.9266 86.2655 75.3516 86.2655 81.9141 86.2655H93.8523L93.8852 89.0819Z" fill="#E6E6E6"/>
</g>
<defs>
<linearGradient id="paint0_linear_871_4" x1="135.855" y1="80.109" x2="0.0234415" y2="215.483" gradientUnits="userSpaceOnUse">
<stop stop-color="#9333EA" stop-opacity="0.5"/>
<stop offset="1" stop-color="#9333EA" stop-opacity="0"/>
</linearGradient>
<clipPath id="clip0_871_4">
<rect width="70" height="70" fill="white" transform="translate(54.0234 54)"/>
</clipPath>
</defs>
</svg>
